<?xml version="1.0" encoding="utf-8"?>
<!-- Svg Vector Icons : http://www.onlinewebfonts.com/icon -->
<!DOCTYPE svg PUBLIC "-//W3C//DTD SVG 1.1//EN" "http://www.w3.org/Graphics/SVG/1.1/DTD/svg11.dtd">
<svg version="1.1" xmlns="http://www.w3.org/2000/svg" xmlns:xlink="http://www.w3.org/1999/xlink" x="0px" y="0px" viewBox="0 0 1000 1000" enable-background="new 0 0 1000 1000" xml:space="preserve">
<metadata> Svg Vector Icons : http://www.onlinewebfonts.com/icon </metadata>
<g><g transform="translate(0.000000,511.000000) scale(0.100000,-0.100000)"><path d="M4541.8,4990.4C3160.3,4867.3,1833,4109.7,1025.4,2978.7C61.3,1630.5-164.1-91.1,418.1-1627.1C670.6-2294.9,1040-2864.6,1545-3365.4c1156.1-1152,2790.1-1644.5,4405.4-1333.5c1099.8,212.9,2185,868.1,2869.4,1730c1202,1515.1,1419.1,3566.5,559.3,5279.8c-379.8,755.5-949.5,1404.5-1644.5,1865.7C6785.2,4810.9,5681.2,5090.6,4541.8,4990.4z M5441.2,4554.2c1028.8-104.3,1972.1-553,2710.8-1293.9c1074.7-1072.6,1525.5-2571,1220.8-4054.8C9197.6-1645.8,8780.2-2413.8,8152-3042C7079.4-4116.7,5581-4567.5,4097.3-4262.8c-851.4,175.3-1619.4,590.6-2247.6,1220.8C637.2-1831.6,228.2-91.1,770.8,1534.5c221.2,661.5,567.6,1216.7,1078.9,1725.8c517.5,519.6,1072.6,861.9,1753,1085.2C4214.1,4545.9,4825.6,4614.8,5441.2,4554.2z"/><path d="M6553.5,2373.5c-33.4-14.6-131.5-98.1-217-185.7L6180,2029.1l396.5-396.5l396.5-396.5l173.2,173.2c154.4,158.6,171.1,183.7,171.1,254.6c0,75.1-18.8,100.2-315.1,398.6c-173.2,175.3-331.8,321.4-352.7,327.6C6630.7,2394.3,6586.9,2388.1,6553.5,2373.5z"/><path d="M4545.9,418.1L3035-1065.7l392.3-392.3l390.2-390.3L5318.1-377c824.3,807.6,1502.5,1477.5,1506.7,1485.9c6.3,10.4-759.6,803.4-768,793C6054.7,1901.8,5376.5,1234,4545.9,418.1z"/><path d="M2905.7-1207.6c-25-71-240-924.5-235.8-930.8c8.4-6.3,997.5,177.4,1008,187.8c4.2,2.1-166.9,179.5-377.7,390.3C3045.5-1305.7,2911.9-1186.7,2905.7-1207.6z"/></g></g>
</svg>