<?xml version="1.0" encoding="UTF-8"?>
<svg xmlns="http://www.w3.org/2000/svg" viewBox="0 0 100 100"> <defs> <style>.cls-1{fill:none;stroke:#0056d3;stroke-miterlimit:10;stroke-width:2px;}</style> </defs> <title>template_illustrationМонтажная область 5 копия</title> <g id="Слой_1" data-name="Слой 1"> <path class="cls-1" d="M48,59.31V46.59a4.65,4.65,0,0,1,4.79-4.5h0a4.65,4.65,0,0,1,4.79,4.5V59.31"/> <path class="cls-1" d="M57.58,59.31V51a4.61,4.61,0,0,1,4.71-4.5h0A4.61,4.61,0,0,1,67,51v8.36"/> <path class="cls-1" d="M67,59.31V53.94a4.5,4.5,0,0,1,4.5-4.5h0a4.5,4.5,0,0,1,4.5,4.5v5.22c0,6.25-.47,30-4.5,35.15H41.11S28.67,73,24.75,61.11c-2.48-7.57,5.55-9.75,8.67-3.37C35.55,62.1,39,68.33,39,68.33V28.89a4.5,4.5,0,0,1,4.5-4.5h0a4.5,4.5,0,0,1,4.5,4.5V59.31"/> <line class="cls-1" x1="43" y1="17.31" x2="43" y2="1.31"/> <line class="cls-1" x1="32" y1="29.31" x2="16" y2="29.31"/> <line class="cls-1" x1="70" y1="29.31" x2="54" y2="29.31"/> <line class="cls-1" x1="34.65" y1="19.63" x2="26.75" y2="11.73"/> </g> </svg>