<?xml version="1.0" encoding="UTF-8"?>
<svg xmlns="http://www.w3.org/2000/svg" viewBox="0 0 100 100"> <defs> <style>.cls-1{fill:none;stroke:#0056d3;stroke-miterlimit:10;stroke-width:2px;}</style> </defs> <title>template_illustrationМонтажная область 5 копия 5</title> <g id="Слой_1" data-name="Слой 1"> <path class="cls-1" d="M93.78,58V42H83.85a35.11,35.11,0,0,0-4.21-10.16l7-7L75,13.09l-7,7a35.11,35.11,0,0,0-10.16-4.21V6h-16v9.93a35.11,35.11,0,0,0-10.16,4.21l-7-7L12.9,24.79l7,7A35.11,35.11,0,0,0,15.71,42H5.78V58h9.93a35.11,35.11,0,0,0,4.21,10.16l-7,7,11.7,11.7,7-7A35.11,35.11,0,0,0,41.78,84V94h16V84a35.11,35.11,0,0,0,10.16-4.21l7,7,11.7-11.7-7-7A35.11,35.11,0,0,0,83.85,58Z"/> <circle class="cls-1" cx="50.28" cy="49.48" r="17.5"/> </g> </svg>