<?xml version="1.0" encoding="UTF-8"?>
<svg xmlns="http://www.w3.org/2000/svg" width="807" height="701" viewBox="0 0 807 701" fill="none"> <rect width="807" height="701" fill="white"/> <ellipse cx="211.674" cy="200.249" rx="43.4018" ry="29.5" transform="rotate(-30 211.674 200.249)" fill="#1C768F" fill-opacity="0.5"/> <ellipse cx="74.5058" cy="443.048" rx="69" ry="29.5" transform="rotate(-30 74.5058 443.048)" fill="#1C768F" fill-opacity="0.5"/> <ellipse rx="85.2484" ry="24.8397" transform="matrix(0.707107 0.707107 0.707107 -0.707107 231.844 469.844)" fill="#1C768F" fill-opacity="0.5"/> <rect x="9" y="269" width="34" height="234" fill="white"/> <rect x="252" y="297" width="58" height="244" fill="white"/> <ellipse cx="463.674" cy="201.249" rx="43.4018" ry="29.5" transform="rotate(-30 463.674 201.249)" fill="#1C768F" fill-opacity="0.5"/> <ellipse cx="326.506" cy="444.048" rx="69" ry="29.5" transform="rotate(-30 326.506 444.048)" fill="#1C768F" fill-opacity="0.5"/> <ellipse rx="85.2484" ry="24.8397" transform="matrix(0.707107 0.707107 0.707107 -0.707107 483.844 470.844)" fill="#1C768F" fill-opacity="0.5"/> <rect x="261" y="270" width="34" height="234" fill="white"/> <rect x="504" y="298" width="58" height="243" fill="white"/> <g style="mix-blend-mode:luminosity"> <rect x="45.5" y="169.5" width="204" height="368" rx="17.5" stroke="black" stroke-width="5"/> <path d="M83 167H212V180C212 185.523 207.523 190 202 190H93C87.4771 190 83 185.523 83 180V167Z" fill="black"/> <path d="M94.9707 283H91.4551V244.562L79.8535 248.869V245.588L94.3848 240.197H94.9707V283ZM138.652 283H111.934V280.305L126.553 263.723C128.975 260.93 130.654 258.625 131.592 256.809C132.529 254.992 132.998 253.225 132.998 251.506C132.998 248.811 132.207 246.682 130.625 245.119C129.043 243.537 126.865 242.746 124.092 242.746C121.221 242.746 118.896 243.664 117.119 245.5C115.361 247.336 114.482 249.719 114.482 252.648H110.996C110.996 250.246 111.533 248.059 112.607 246.086C113.701 244.113 115.244 242.57 117.236 241.457C119.248 240.324 121.533 239.758 124.092 239.758C127.998 239.758 131.045 240.783 133.232 242.834C135.439 244.885 136.543 247.678 136.543 251.213C136.543 253.205 135.918 255.383 134.668 257.746C133.438 260.109 131.26 263.059 128.135 266.594L116.24 280.041H138.652V283ZM144.922 280.891C144.922 280.207 145.137 279.631 145.566 279.162C146.016 278.674 146.631 278.43 147.412 278.43C148.193 278.43 148.809 278.674 149.258 279.162C149.707 279.631 149.932 280.207 149.932 280.891C149.932 281.574 149.707 282.141 149.258 282.59C148.809 283.02 148.193 283.234 147.412 283.234C146.631 283.234 146.016 283.02 145.566 282.59C145.137 282.141 144.922 281.574 144.922 280.891ZM144.98 253.85C144.98 253.166 145.195 252.59 145.625 252.121C146.074 251.633 146.689 251.389 147.471 251.389C148.252 251.389 148.867 251.633 149.316 252.121C149.766 252.59 149.99 253.166 149.99 253.85C149.99 254.533 149.766 255.1 149.316 255.549C148.867 255.979 148.252 256.193 147.471 256.193C146.689 256.193 146.074 255.979 145.625 255.549C145.195 255.1 144.98 254.533 144.98 253.85ZM183.535 265.217C183.535 271.232 182.432 275.803 180.225 278.928C178.018 282.033 174.766 283.586 170.469 283.586C166.25 283.586 163.018 282.062 160.771 279.016C158.525 275.949 157.373 271.496 157.314 265.656V258.01C157.314 252.014 158.428 247.473 160.654 244.387C162.881 241.301 166.133 239.758 170.41 239.758C174.629 239.758 177.852 241.252 180.078 244.24C182.305 247.209 183.457 251.594 183.535 257.395V265.217ZM180.02 257.57C180.02 252.688 179.219 248.996 177.617 246.496C176.035 243.996 173.633 242.746 170.41 242.746C167.246 242.746 164.863 243.967 163.262 246.408C161.66 248.85 160.84 252.453 160.801 257.219V265.598C160.801 270.461 161.621 274.182 163.262 276.76C164.922 279.338 167.324 280.627 170.469 280.627C173.594 280.627 175.957 279.367 177.559 276.848C179.18 274.328 180 270.637 180.02 265.773V257.57ZM216.816 265.217C216.816 271.232 215.713 275.803 213.506 278.928C211.299 282.033 208.047 283.586 203.75 283.586C199.531 283.586 196.299 282.062 194.053 279.016C191.807 275.949 190.654 271.496 190.596 265.656V258.01C190.596 252.014 191.709 247.473 193.936 244.387C196.162 241.301 199.414 239.758 203.691 239.758C207.91 239.758 211.133 241.252 213.359 244.24C215.586 247.209 216.738 251.594 216.816 257.395V265.217ZM213.301 257.57C213.301 252.688 212.5 248.996 210.898 246.496C209.316 243.996 206.914 242.746 203.691 242.746C200.527 242.746 198.145 243.967 196.543 246.408C194.941 248.85 194.121 252.453 194.082 257.219V265.598C194.082 270.461 194.902 274.182 196.543 276.76C198.203 279.338 200.605 280.627 203.75 280.627C206.875 280.627 209.238 279.367 210.84 276.848C212.461 274.328 213.281 270.637 213.301 265.773V257.57Z" fill="black"/> <rect x="58" y="303" width="177" height="68" rx="20" fill="#D9D9D9"/> <path d="M67.9189 322V312.047H71.3301C72.4557 312.047 73.3125 312.272 73.9004 312.724C74.4883 313.175 74.7822 313.847 74.7822 314.74C74.7822 315.196 74.6592 315.606 74.4131 315.971C74.167 316.335 73.807 316.618 73.333 316.818C73.8708 316.964 74.2855 317.24 74.5771 317.646C74.8734 318.047 75.0215 318.53 75.0215 319.095C75.0215 320.029 74.7207 320.747 74.1191 321.248C73.5221 321.749 72.6654 322 71.5488 322H67.9189ZM69.6484 317.509V320.619H71.5693C72.1117 320.619 72.5355 320.485 72.8408 320.216C73.1462 319.947 73.2988 319.573 73.2988 319.095C73.2988 318.06 72.7702 317.532 71.7129 317.509H69.6484ZM69.6484 316.237H71.3438C71.8815 316.237 72.3008 316.117 72.6016 315.875C72.9069 315.629 73.0596 315.283 73.0596 314.836C73.0596 314.344 72.9183 313.988 72.6357 313.77C72.3577 313.551 71.9225 313.441 71.3301 313.441H69.6484V316.237ZM79.8477 322.137C78.7949 322.137 77.9404 321.806 77.2842 321.146C76.6325 320.48 76.3066 319.596 76.3066 318.493V318.288C76.3066 317.55 76.4479 316.891 76.7305 316.312C77.0176 315.729 77.4186 315.276 77.9336 314.952C78.4486 314.629 79.0228 314.467 79.6562 314.467C80.6634 314.467 81.4404 314.788 81.9873 315.431C82.5387 316.073 82.8145 316.982 82.8145 318.158V318.828H77.9814C78.0316 319.439 78.2344 319.922 78.5898 320.277C78.9499 320.633 79.401 320.811 79.9434 320.811C80.7044 320.811 81.3242 320.503 81.8027 319.888L82.6982 320.742C82.402 321.184 82.0055 321.528 81.5088 321.774C81.0166 322.016 80.4629 322.137 79.8477 322.137ZM79.6494 315.8C79.1937 315.8 78.8245 315.959 78.542 316.278C78.264 316.597 78.0863 317.042 78.0088 317.611H81.1738V317.488C81.1374 316.932 80.9893 316.513 80.7295 316.23C80.4697 315.943 80.1097 315.8 79.6494 315.8ZM87.1484 320.811C87.5632 320.811 87.9072 320.69 88.1807 320.448C88.4541 320.207 88.5999 319.908 88.6182 319.553H90.1836C90.1654 320.013 90.0218 320.444 89.7529 320.845C89.484 321.241 89.1195 321.556 88.6592 321.788C88.1989 322.021 87.7021 322.137 87.1689 322.137C86.1344 322.137 85.3141 321.802 84.708 321.132C84.1019 320.462 83.7988 319.537 83.7988 318.356V318.186C83.7988 317.06 84.0996 316.16 84.7012 315.485C85.3027 314.806 86.123 314.467 87.1621 314.467C88.0417 314.467 88.7572 314.724 89.3086 315.239C89.8646 315.75 90.1562 316.422 90.1836 317.256H88.6182C88.5999 316.832 88.4541 316.483 88.1807 316.21C87.9118 315.937 87.5677 315.8 87.1484 315.8C86.6107 315.8 86.196 315.996 85.9043 316.388C85.6126 316.775 85.4645 317.365 85.46 318.158V318.425C85.46 319.227 85.6035 319.826 85.8906 320.223C86.1823 320.615 86.6016 320.811 87.1484 320.811ZM94.6953 322.137C93.6426 322.137 92.7881 321.806 92.1318 321.146C91.4801 320.48 91.1543 319.596 91.1543 318.493V318.288C91.1543 317.55 91.2956 316.891 91.5781 316.312C91.8652 315.729 92.2663 315.276 92.7812 314.952C93.2962 314.629 93.8704 314.467 94.5039 314.467C95.5111 314.467 96.2881 314.788 96.835 315.431C97.3864 316.073 97.6621 316.982 97.6621 318.158V318.828H92.8291C92.8792 319.439 93.082 319.922 93.4375 320.277C93.7975 320.633 94.2487 320.811 94.791 320.811C95.5521 320.811 96.1719 320.503 96.6504 319.888L97.5459 320.742C97.2497 321.184 96.8532 321.528 96.3564 321.774C95.8643 322.016 95.3105 322.137 94.6953 322.137ZM94.4971 315.8C94.0413 315.8 93.6722 315.959 93.3896 316.278C93.1117 316.597 92.9339 317.042 92.8564 317.611H96.0215V317.488C95.985 316.932 95.8369 316.513 95.5771 316.23C95.3174 315.943 94.9574 315.8 94.4971 315.8ZM105.223 322H103.562V319.013H100.684V322H99.0225V314.604H100.684V317.687H103.562V314.604H105.223V322ZM113.262 322H111.601V319.013H108.723V322H107.062V314.604H108.723V317.687H111.601V314.604H113.262V322ZM119.653 314.604H121.308V322H119.653V317.064L116.755 322H115.101V314.604H116.755V319.539L119.653 314.604ZM126.332 322.137C125.279 322.137 124.425 321.806 123.769 321.146C123.117 320.48 122.791 319.596 122.791 318.493V318.288C122.791 317.55 122.932 316.891 123.215 316.312C123.502 315.729 123.903 315.276 124.418 314.952C124.933 314.629 125.507 314.467 126.141 314.467C127.148 314.467 127.925 314.788 128.472 315.431C129.023 316.073 129.299 316.982 129.299 318.158V318.828H124.466C124.516 319.439 124.719 319.922 125.074 320.277C125.434 320.633 125.885 320.811 126.428 320.811C127.189 320.811 127.809 320.503 128.287 319.888L129.183 320.742C128.886 321.184 128.49 321.528 127.993 321.774C127.501 322.016 126.947 322.137 126.332 322.137ZM126.134 315.8C125.678 315.8 125.309 315.959 125.026 316.278C124.748 316.597 124.571 317.042 124.493 317.611H127.658V317.488C127.622 316.932 127.474 316.513 127.214 316.23C126.954 315.943 126.594 315.8 126.134 315.8ZM140.346 322H138.685V319.013H135.807V322H134.146V314.604H135.807V317.687H138.685V314.604H140.346V322ZM141.809 318.233C141.809 317.509 141.952 316.857 142.239 316.278C142.526 315.695 142.93 315.248 143.449 314.938C143.969 314.624 144.566 314.467 145.24 314.467C146.238 314.467 147.047 314.788 147.667 315.431C148.291 316.073 148.629 316.925 148.679 317.987L148.686 318.377C148.686 319.106 148.544 319.758 148.262 320.332C147.984 320.906 147.583 321.351 147.059 321.665C146.539 321.979 145.938 322.137 145.254 322.137C144.21 322.137 143.374 321.79 142.745 321.098C142.121 320.4 141.809 319.473 141.809 318.315V318.233ZM143.47 318.377C143.47 319.138 143.627 319.735 143.941 320.168C144.256 320.596 144.693 320.811 145.254 320.811C145.814 320.811 146.25 320.592 146.56 320.154C146.874 319.717 147.031 319.076 147.031 318.233C147.031 317.486 146.869 316.894 146.546 316.456C146.227 316.019 145.792 315.8 145.24 315.8C144.698 315.8 144.267 316.016 143.948 316.449C143.629 316.878 143.47 317.52 143.47 318.377ZM150.217 322V314.604H153.218C154.229 314.604 155 314.781 155.528 315.137C156.057 315.488 156.321 315.993 156.321 316.654C156.321 316.996 156.214 317.304 156 317.577C155.79 317.846 155.478 318.053 155.063 318.199C155.547 318.299 155.929 318.502 156.212 318.808C156.494 319.113 156.636 319.473 156.636 319.888C156.636 320.576 156.381 321.1 155.87 321.46C155.364 321.82 154.635 322 153.683 322H150.217ZM151.878 318.849V320.688H153.696C154.549 320.688 154.975 320.382 154.975 319.771C154.975 319.156 154.542 318.849 153.676 318.849H151.878ZM151.878 317.659H153.245C154.188 317.659 154.66 317.381 154.66 316.825C154.66 316.242 154.214 315.941 153.32 315.923H151.878V317.659ZM162.692 314.604H164.347V322H162.692V317.064L159.794 322H158.14V314.604H159.794V319.539L162.692 314.604ZM172.379 322H170.718V319.013H167.84V322H166.179V314.604H167.84V317.687H170.718V314.604H172.379V322ZM176.781 319.074H175.94V322H174.279V314.604H175.94V317.557H176.672L178.716 314.604H180.767L178.094 318.145L180.992 322H178.832L176.781 319.074ZM186.522 314.604H188.177V322H186.522V317.064L183.624 322H181.97V314.604H183.624V319.539L186.522 314.604Z" fill="black"/> <path d="M76.8804 338H75.8438V331.028H71.9873V338H70.9561V330.18H76.8804V338ZM83.5137 335.159C83.5137 336.043 83.3114 336.756 82.9067 337.296C82.5021 337.837 81.9543 338.107 81.2632 338.107C80.5578 338.107 80.0028 337.884 79.5981 337.436V340.234H78.6045V332.188H79.5122L79.5605 332.833C79.9652 332.332 80.5273 332.081 81.2471 332.081C81.9453 332.081 82.4967 332.344 82.9014 332.871C83.3096 333.397 83.5137 334.129 83.5137 335.067V335.159ZM82.52 335.046C82.52 334.391 82.3804 333.873 82.1011 333.494C81.8218 333.114 81.4386 332.924 80.9517 332.924C80.3501 332.924 79.8989 333.191 79.5981 333.725V336.501C79.8953 337.031 80.3501 337.296 80.9624 337.296C81.4386 337.296 81.8164 337.108 82.0957 336.732C82.3786 336.353 82.52 335.791 82.52 335.046ZM88.541 332.188H89.5347V338H88.541V333.762L85.8608 338H84.8672V332.188H85.8608V336.432L88.541 332.188ZM93.0796 334.31L94.3687 332.188H95.5288L93.6274 335.062L95.5879 338H94.4385L93.0957 335.825L91.7529 338H90.5981L92.5586 335.062L90.6572 332.188H91.8066L93.0796 334.31ZM96.2163 335.041C96.2163 334.471 96.3273 333.959 96.5493 333.504C96.7749 333.05 97.0864 332.699 97.4839 332.452C97.8849 332.205 98.3415 332.081 98.8535 332.081C99.6449 332.081 100.284 332.355 100.771 332.903C101.262 333.451 101.507 334.179 101.507 335.089V335.159C101.507 335.724 101.398 336.233 101.179 336.684C100.964 337.132 100.655 337.481 100.25 337.731C99.849 337.982 99.387 338.107 98.8643 338.107C98.0765 338.107 97.4373 337.833 96.9468 337.286C96.4598 336.738 96.2163 336.013 96.2163 335.11V335.041ZM97.2153 335.159C97.2153 335.803 97.3639 336.321 97.6611 336.711C97.9619 337.101 98.363 337.296 98.8643 337.296C99.3691 337.296 99.7702 337.099 100.067 336.706C100.365 336.308 100.513 335.753 100.513 335.041C100.513 334.403 100.361 333.888 100.057 333.494C99.7559 333.096 99.3548 332.897 98.8535 332.897C98.363 332.897 97.9673 333.093 97.6665 333.483C97.3657 333.873 97.2153 334.432 97.2153 335.159ZM102.318 337.189L102.662 336.765C103.048 336.263 103.269 335.511 103.322 334.509L103.414 332.188H107.157V337.189H107.904V339.708H106.91V338H102.855V339.708H101.861L101.867 337.189H102.318ZM103.494 337.189H106.164V333.107H104.375L104.316 334.493C104.255 335.649 103.981 336.548 103.494 337.189ZM112.765 332.188H113.758V338H112.765V333.762L110.084 338H109.091V332.188H110.084V336.432L112.765 332.188ZM119.672 332.994H117.722V338H116.729V332.994H114.816V332.188H119.672V332.994ZM122.621 338.107C121.833 338.107 121.192 337.85 120.698 337.334C120.204 336.815 119.957 336.122 119.957 335.255V335.073C119.957 334.496 120.066 333.982 120.284 333.531C120.506 333.076 120.814 332.722 121.208 332.468C121.605 332.21 122.035 332.081 122.497 332.081C123.253 332.081 123.84 332.33 124.259 332.828C124.678 333.325 124.887 334.038 124.887 334.965V335.379H120.95C120.965 335.952 121.131 336.416 121.45 336.77C121.772 337.121 122.18 337.296 122.674 337.296C123.025 337.296 123.322 337.225 123.566 337.082C123.809 336.938 124.022 336.749 124.205 336.512L124.812 336.985C124.325 337.733 123.595 338.107 122.621 338.107ZM122.497 332.897C122.096 332.897 121.759 333.044 121.487 333.338C121.215 333.628 121.047 334.036 120.982 334.562H123.894V334.487C123.865 333.982 123.729 333.592 123.485 333.316C123.242 333.037 122.912 332.897 122.497 332.897ZM130.581 335.524H129.855V338H128.856V332.188H129.855V334.648H130.505L132.46 332.188H133.664L131.365 334.981L133.857 338H132.595L130.581 335.524ZM142.188 338H141.194V335.519H138.524V338H137.525V332.188H138.524V334.708H141.194V332.188H142.188V338ZM147.376 338C147.319 337.885 147.272 337.681 147.236 337.388C146.774 337.868 146.223 338.107 145.582 338.107C145.009 338.107 144.538 337.946 144.169 337.624C143.804 337.298 143.622 336.886 143.622 336.389C143.622 335.784 143.851 335.314 144.309 334.981C144.771 334.645 145.419 334.477 146.253 334.477H147.22V334.02C147.22 333.673 147.116 333.397 146.909 333.193C146.701 332.985 146.395 332.881 145.99 332.881C145.636 332.881 145.339 332.971 145.099 333.15C144.859 333.329 144.739 333.546 144.739 333.8H143.74C143.74 333.51 143.842 333.23 144.046 332.962C144.254 332.69 144.533 332.475 144.884 332.317C145.238 332.16 145.627 332.081 146.049 332.081C146.719 332.081 147.243 332.249 147.623 332.586C148.003 332.919 148.2 333.379 148.214 333.966V336.641C148.214 337.175 148.282 337.599 148.418 337.914V338H147.376ZM145.727 337.243C146.039 337.243 146.334 337.162 146.613 337.001C146.893 336.84 147.095 336.63 147.22 336.373V335.18H146.441C145.224 335.18 144.615 335.536 144.615 336.249C144.615 336.561 144.719 336.804 144.927 336.979C145.134 337.155 145.401 337.243 145.727 337.243ZM153.118 336.684L155.094 332.188H156.335V338H155.341V333.773L153.461 338H152.774L150.856 333.682V338H149.863V332.188H151.152L153.118 336.684ZM164.424 332.188H165.417V338H164.424V333.762L161.744 338H160.75V332.188H161.744V336.432L164.424 332.188ZM75.5054 351H74.5117V346.01H71.8369V351H70.8379V345.188H75.5054V351ZM76.8374 348.041C76.8374 347.471 76.9484 346.959 77.1704 346.504C77.396 346.05 77.7075 345.699 78.105 345.452C78.506 345.205 78.9626 345.081 79.4746 345.081C80.266 345.081 80.9051 345.355 81.3921 345.903C81.8826 346.451 82.1279 347.179 82.1279 348.089V348.159C82.1279 348.724 82.0187 349.233 81.8003 349.684C81.5854 350.132 81.2757 350.481 80.8711 350.731C80.4701 350.982 80.0081 351.107 79.4854 351.107C78.6976 351.107 78.0584 350.833 77.5679 350.286C77.0809 349.738 76.8374 349.013 76.8374 348.11V348.041ZM77.8364 348.159C77.8364 348.803 77.985 349.321 78.2822 349.711C78.583 350.101 78.984 350.296 79.4854 350.296C79.9902 350.296 80.3913 350.099 80.6885 349.706C80.9857 349.308 81.1343 348.753 81.1343 348.041C81.1343 347.403 80.9821 346.888 80.6777 346.494C80.377 346.096 79.9759 345.897 79.4746 345.897C78.984 345.897 78.5884 346.093 78.2876 346.483C77.9868 346.873 77.8364 347.432 77.8364 348.159ZM88.1274 351H87.1338V346.01H84.459V351H83.46V345.188H88.1274V351ZM94.6318 348.159C94.6318 349.043 94.4295 349.756 94.0249 350.296C93.6203 350.837 93.0724 351.107 92.3813 351.107C91.6759 351.107 91.1209 350.884 90.7163 350.436V353.234H89.7227V345.188H90.6304L90.6787 345.833C91.0833 345.332 91.6455 345.081 92.3652 345.081C93.0635 345.081 93.6149 345.344 94.0195 345.871C94.4277 346.397 94.6318 347.129 94.6318 348.067V348.159ZM93.6382 348.046C93.6382 347.391 93.4985 346.873 93.2192 346.494C92.9399 346.114 92.5568 345.924 92.0698 345.924C91.4683 345.924 91.0171 346.191 90.7163 346.725V349.501C91.0135 350.031 91.4683 350.296 92.0806 350.296C92.5568 350.296 92.9346 350.108 93.2139 349.732C93.4967 349.353 93.6382 348.791 93.6382 348.046ZM95.6362 348.041C95.6362 347.471 95.7472 346.959 95.9692 346.504C96.1948 346.05 96.5063 345.699 96.9038 345.452C97.3049 345.205 97.7614 345.081 98.2734 345.081C99.0648 345.081 99.7039 345.355 100.191 345.903C100.681 346.451 100.927 347.179 100.927 348.089V348.159C100.927 348.724 100.818 349.233 100.599 349.684C100.384 350.132 100.075 350.481 99.6699 350.731C99.2689 350.982 98.807 351.107 98.2842 351.107C97.4964 351.107 96.8573 350.833 96.3667 350.286C95.8797 349.738 95.6362 349.013 95.6362 348.11V348.041ZM96.6353 348.159C96.6353 348.803 96.7839 349.321 97.0811 349.711C97.3818 350.101 97.7829 350.296 98.2842 350.296C98.7891 350.296 99.1901 350.099 99.4873 349.706C99.7845 349.308 99.9331 348.753 99.9331 348.041C99.9331 347.403 99.7809 346.888 99.4766 346.494C99.1758 346.096 98.7747 345.897 98.2734 345.897C97.7829 345.897 97.3872 346.093 97.0864 346.483C96.7856 346.873 96.6353 347.432 96.6353 348.159ZM104.724 345.521C105.455 345.521 106.038 345.767 106.475 346.257C106.916 346.744 107.136 347.387 107.136 348.186V348.277C107.136 348.825 107.03 349.315 106.819 349.749C106.608 350.178 106.303 350.513 105.906 350.753C105.512 350.989 105.057 351.107 104.542 351.107C103.761 351.107 103.132 350.848 102.656 350.329C102.18 349.806 101.942 349.106 101.942 348.229V347.745C101.942 346.524 102.167 345.554 102.619 344.834C103.073 344.114 103.743 343.676 104.627 343.518C105.129 343.429 105.467 343.319 105.643 343.19C105.818 343.062 105.906 342.884 105.906 342.659H106.722C106.722 343.106 106.62 343.455 106.416 343.706C106.215 343.957 105.893 344.134 105.449 344.238L104.708 344.404C104.117 344.544 103.673 344.78 103.376 345.113C103.082 345.443 102.891 345.883 102.801 346.435C103.328 345.826 103.969 345.521 104.724 345.521ZM104.531 346.338C104.044 346.338 103.657 346.503 103.371 346.832C103.084 347.158 102.941 347.611 102.941 348.191V348.277C102.941 348.9 103.084 349.394 103.371 349.759C103.661 350.121 104.051 350.302 104.542 350.302C105.036 350.302 105.426 350.119 105.712 349.754C105.999 349.389 106.142 348.855 106.142 348.153C106.142 347.605 105.997 347.167 105.707 346.837C105.421 346.504 105.028 346.338 104.531 346.338ZM110.154 349.544L111.508 345.188H112.571L110.235 351.897C109.873 352.864 109.299 353.347 108.511 353.347L108.323 353.331L107.952 353.261V352.456L108.221 352.477C108.557 352.477 108.819 352.409 109.005 352.273C109.195 352.137 109.35 351.888 109.472 351.526L109.692 350.936L107.619 345.188H108.704L110.154 349.544ZM117.223 345.188H118.216V351H117.223V346.762L114.542 351H113.549V345.188H114.542V349.432L117.223 345.188ZM117.491 343.072C117.491 343.506 117.343 343.855 117.045 344.12C116.752 344.381 116.365 344.512 115.885 344.512C115.405 344.512 115.017 344.379 114.72 344.114C114.423 343.849 114.274 343.502 114.274 343.072H115.085C115.085 343.323 115.153 343.52 115.289 343.663C115.425 343.803 115.624 343.873 115.885 343.873C116.136 343.873 116.331 343.803 116.471 343.663C116.614 343.523 116.686 343.326 116.686 343.072H117.491ZM124.13 345.994H122.18V351H121.187V345.994H119.274V345.188H124.13V345.994ZM127.079 351.107C126.291 351.107 125.65 350.85 125.156 350.334C124.662 349.815 124.415 349.122 124.415 348.255V348.073C124.415 347.496 124.524 346.982 124.742 346.531C124.964 346.076 125.272 345.722 125.666 345.468C126.063 345.21 126.493 345.081 126.955 345.081C127.711 345.081 128.298 345.33 128.717 345.828C129.136 346.325 129.345 347.038 129.345 347.965V348.379H125.408C125.423 348.952 125.589 349.416 125.908 349.77C126.23 350.121 126.638 350.296 127.132 350.296C127.483 350.296 127.78 350.225 128.024 350.082C128.267 349.938 128.48 349.749 128.663 349.512L129.27 349.985C128.783 350.733 128.053 351.107 127.079 351.107ZM126.955 345.897C126.554 345.897 126.217 346.044 125.945 346.338C125.673 346.628 125.505 347.036 125.44 347.562H128.352V347.487C128.323 346.982 128.187 346.592 127.943 346.316C127.7 346.037 127.37 345.897 126.955 345.897ZM132.965 348.041C132.965 347.471 133.076 346.959 133.298 346.504C133.524 346.05 133.835 345.699 134.233 345.452C134.634 345.205 135.09 345.081 135.603 345.081C136.394 345.081 137.033 345.355 137.52 345.903C138.011 346.451 138.256 347.179 138.256 348.089V348.159C138.256 348.724 138.147 349.233 137.928 349.684C137.713 350.132 137.404 350.481 136.999 350.731C136.598 350.982 136.136 351.107 135.613 351.107C134.826 351.107 134.186 350.833 133.696 350.286C133.209 349.738 132.965 349.013 132.965 348.11V348.041ZM133.964 348.159C133.964 348.803 134.113 349.321 134.41 349.711C134.711 350.101 135.112 350.296 135.613 350.296C136.118 350.296 136.519 350.099 136.816 349.706C137.114 349.308 137.262 348.753 137.262 348.041C137.262 347.403 137.11 346.888 136.806 346.494C136.505 346.096 136.104 345.897 135.603 345.897C135.112 345.897 134.716 346.093 134.416 346.483C134.115 346.873 133.964 347.432 133.964 348.159ZM142.053 345.521C142.784 345.521 143.367 345.767 143.804 346.257C144.245 346.744 144.465 347.387 144.465 348.186V348.277C144.465 348.825 144.359 349.315 144.148 349.749C143.937 350.178 143.632 350.513 143.235 350.753C142.841 350.989 142.386 351.107 141.871 351.107C141.09 351.107 140.462 350.848 139.985 350.329C139.509 349.806 139.271 349.106 139.271 348.229V347.745C139.271 346.524 139.497 345.554 139.948 344.834C140.403 344.114 141.072 343.676 141.957 343.518C142.458 343.429 142.796 343.319 142.972 343.19C143.147 343.062 143.235 342.884 143.235 342.659H144.051C144.051 343.106 143.949 343.455 143.745 343.706C143.545 343.957 143.222 344.134 142.778 344.238L142.037 344.404C141.446 344.544 141.002 344.78 140.705 345.113C140.411 345.443 140.22 345.883 140.13 346.435C140.657 345.826 141.298 345.521 142.053 345.521ZM141.86 346.338C141.373 346.338 140.986 346.503 140.7 346.832C140.413 347.158 140.27 347.611 140.27 348.191V348.277C140.27 348.9 140.413 349.394 140.7 349.759C140.99 350.121 141.38 350.302 141.871 350.302C142.365 350.302 142.755 350.119 143.042 349.754C143.328 349.389 143.471 348.855 143.471 348.153C143.471 347.605 143.326 347.167 143.036 346.837C142.75 346.504 142.358 346.338 141.86 346.338ZM150.233 351H149.24V348.519H146.57V351H145.571V345.188H146.57V347.708H149.24V345.188H150.233V351ZM151.571 348.041C151.571 347.471 151.682 346.959 151.904 346.504C152.129 346.05 152.441 345.699 152.838 345.452C153.239 345.205 153.696 345.081 154.208 345.081C154.999 345.081 155.639 345.355 156.125 345.903C156.616 346.451 156.861 347.179 156.861 348.089V348.159C156.861 348.724 156.752 349.233 156.534 349.684C156.319 350.132 156.009 350.481 155.604 350.731C155.203 350.982 154.742 351.107 154.219 351.107C153.431 351.107 152.792 350.833 152.301 350.286C151.814 349.738 151.571 349.013 151.571 348.11V348.041ZM152.57 348.159C152.57 348.803 152.718 349.321 153.016 349.711C153.316 350.101 153.717 350.296 154.219 350.296C154.724 350.296 155.125 350.099 155.422 349.706C155.719 349.308 155.868 348.753 155.868 348.041C155.868 347.403 155.715 346.888 155.411 346.494C155.11 346.096 154.709 345.897 154.208 345.897C153.717 345.897 153.322 346.093 153.021 346.483C152.72 346.873 152.57 347.432 152.57 348.159ZM158.199 351V345.188H160.465C161.239 345.188 161.831 345.325 162.243 345.597C162.659 345.865 162.866 346.261 162.866 346.784C162.866 347.052 162.786 347.296 162.625 347.514C162.463 347.729 162.225 347.894 161.91 348.008C162.261 348.091 162.542 348.252 162.753 348.492C162.968 348.732 163.076 349.018 163.076 349.351C163.076 349.885 162.879 350.293 162.485 350.576C162.095 350.859 161.541 351 160.825 351H158.199ZM159.192 348.449V350.2H160.836C161.251 350.2 161.561 350.123 161.765 349.969C161.973 349.815 162.077 349.598 162.077 349.319C162.077 348.739 161.651 348.449 160.798 348.449H159.192ZM159.192 347.654H160.476C161.407 347.654 161.873 347.382 161.873 346.837C161.873 346.293 161.432 346.012 160.551 345.994H159.192V347.654ZM169.156 345.188V351H168.157V346.01H166.18L166.062 348.186C165.998 349.185 165.829 349.899 165.557 350.329C165.289 350.758 164.861 350.982 164.273 351H163.876V350.125L164.161 350.103C164.483 350.067 164.714 349.881 164.854 349.544C164.993 349.208 165.083 348.585 165.122 347.675L165.229 345.188H169.156ZM173.163 351.107C172.375 351.107 171.734 350.85 171.24 350.334C170.746 349.815 170.499 349.122 170.499 348.255V348.073C170.499 347.496 170.608 346.982 170.826 346.531C171.048 346.076 171.356 345.722 171.75 345.468C172.147 345.21 172.577 345.081 173.039 345.081C173.795 345.081 174.382 345.33 174.801 345.828C175.22 346.325 175.429 347.038 175.429 347.965V348.379H171.492C171.507 348.952 171.673 349.416 171.992 349.77C172.314 350.121 172.722 350.296 173.216 350.296C173.567 350.296 173.864 350.225 174.108 350.082C174.351 349.938 174.564 349.749 174.747 349.512L175.354 349.985C174.867 350.733 174.137 351.107 173.163 351.107ZM173.039 345.897C172.638 345.897 172.301 346.044 172.029 346.338C171.757 346.628 171.589 347.036 171.524 347.562H174.436V347.487C174.407 346.982 174.271 346.592 174.027 346.316C173.784 346.037 173.454 345.897 173.039 345.897ZM181.332 351H180.338V348.519H177.669V351H176.67V345.188H177.669V347.708H180.338V345.188H181.332V351ZM187.681 351H186.687V348.519H184.018V351H183.019V345.188H184.018V347.708H186.687V345.188H187.681V351ZM189.018 348.041C189.018 347.471 189.129 346.959 189.351 346.504C189.577 346.05 189.888 345.699 190.286 345.452C190.687 345.205 191.143 345.081 191.655 345.081C192.447 345.081 193.086 345.355 193.573 345.903C194.063 346.451 194.309 347.179 194.309 348.089V348.159C194.309 348.724 194.199 349.233 193.981 349.684C193.766 350.132 193.456 350.481 193.052 350.731C192.651 350.982 192.189 351.107 191.666 351.107C190.878 351.107 190.239 350.833 189.749 350.286C189.262 349.738 189.018 349.013 189.018 348.11V348.041ZM190.017 348.159C190.017 348.803 190.166 349.321 190.463 349.711C190.764 350.101 191.165 350.296 191.666 350.296C192.171 350.296 192.572 350.099 192.869 349.706C193.166 349.308 193.315 348.753 193.315 348.041C193.315 347.403 193.163 346.888 192.858 346.494C192.558 346.096 192.157 345.897 191.655 345.897C191.165 345.897 190.769 346.093 190.468 346.483C190.167 346.873 190.017 347.432 190.017 348.159ZM197.966 351.107C197.179 351.107 196.538 350.85 196.043 350.334C195.549 349.815 195.302 349.122 195.302 348.255V348.073C195.302 347.496 195.411 346.982 195.63 346.531C195.852 346.076 196.16 345.722 196.554 345.468C196.951 345.21 197.381 345.081 197.843 345.081C198.598 345.081 199.186 345.33 199.604 345.828C200.023 346.325 200.233 347.038 200.233 347.965V348.379H196.296C196.31 348.952 196.477 349.416 196.795 349.77C197.118 350.121 197.526 350.296 198.02 350.296C198.371 350.296 198.668 350.225 198.912 350.082C199.155 349.938 199.368 349.749 199.551 349.512L200.158 349.985C199.671 350.733 198.94 351.107 197.966 351.107ZM197.843 345.897C197.442 345.897 197.105 346.044 196.833 346.338C196.561 346.628 196.393 347.036 196.328 347.562H199.239V347.487C199.211 346.982 199.075 346.592 198.831 346.316C198.588 346.037 198.258 345.897 197.843 345.897ZM74.0981 362.684L76.0747 358.188H77.3154V364H76.3218V359.773L74.4419 364H73.7544L71.8369 359.682V364H70.8433V358.188H72.1323L74.0981 362.684ZM81.3276 364.107C80.5399 364.107 79.8989 363.85 79.4048 363.334C78.9106 362.815 78.6636 362.122 78.6636 361.255V361.073C78.6636 360.496 78.7728 359.982 78.9912 359.531C79.2132 359.076 79.5212 358.722 79.915 358.468C80.3125 358.21 80.7422 358.081 81.2041 358.081C81.9596 358.081 82.5469 358.33 82.9658 358.828C83.3848 359.325 83.5942 360.038 83.5942 360.965V361.379H79.6572C79.6715 361.952 79.8381 362.416 80.1567 362.77C80.479 363.121 80.8872 363.296 81.3813 363.296C81.7323 363.296 82.0295 363.225 82.2729 363.082C82.5164 362.938 82.7295 362.749 82.9121 362.512L83.519 362.985C83.0321 363.733 82.3016 364.107 81.3276 364.107ZM81.2041 358.897C80.8031 358.897 80.4665 359.044 80.1943 359.338C79.9222 359.628 79.7539 360.036 79.6895 360.562H82.6006V360.487C82.5719 359.982 82.4359 359.592 82.1924 359.316C81.9489 359.037 81.6195 358.897 81.2041 358.897ZM89.4971 364H88.5034V361.519H85.834V364H84.835V358.188H85.834V360.708H88.5034V358.188H89.4971V364ZM92.1826 360.654H93.5791C93.6543 359.88 93.9282 359.259 94.4009 358.79C94.8771 358.317 95.4769 358.081 96.2002 358.081C96.9593 358.081 97.5806 358.337 98.064 358.849C98.5474 359.361 98.8088 360.027 98.8481 360.847L98.8535 361.159C98.8535 361.724 98.7425 362.235 98.5205 362.689C98.2985 363.144 97.987 363.495 97.5859 363.742C97.1849 363.986 96.7266 364.107 96.2109 364.107C95.4626 364.107 94.8503 363.864 94.374 363.377C93.8978 362.886 93.631 362.251 93.5737 361.47H92.1826V364H91.189V358.188H92.1826V360.654ZM94.5566 361.159C94.5566 361.803 94.7052 362.321 95.0024 362.711C95.3032 363.101 95.7061 363.296 96.2109 363.296C96.7158 363.296 97.1151 363.098 97.4087 362.7C97.7059 362.303 97.8545 361.75 97.8545 361.041C97.8545 360.407 97.7041 359.891 97.4033 359.494C97.1025 359.096 96.7015 358.897 96.2002 358.897C95.7061 358.897 95.3086 359.093 95.0078 359.483C94.707 359.873 94.5566 360.432 94.5566 361.159Z" fill="black"/> </g> <rect x="297.5" y="170.5" width="204" height="368" rx="17.5" stroke="black" stroke-width="5"/> <path d="M326.988 227H325.582V211.625L320.941 213.348V212.035L326.754 209.879H326.988V227ZM344.461 227H333.773V225.922L339.621 219.289C340.59 218.172 341.262 217.25 341.637 216.523C342.012 215.797 342.199 215.09 342.199 214.402C342.199 213.324 341.883 212.473 341.25 211.848C340.617 211.215 339.746 210.898 338.637 210.898C337.488 210.898 336.559 211.266 335.848 212C335.145 212.734 334.793 213.688 334.793 214.859H333.398C333.398 213.898 333.613 213.023 334.043 212.234C334.48 211.445 335.098 210.828 335.895 210.383C336.699 209.93 337.613 209.703 338.637 209.703C340.199 209.703 341.418 210.113 342.293 210.934C343.176 211.754 343.617 212.871 343.617 214.285C343.617 215.082 343.367 215.953 342.867 216.898C342.375 217.844 341.504 219.023 340.254 220.438L335.496 225.816H344.461V227ZM346.969 226.156C346.969 225.883 347.055 225.652 347.227 225.465C347.406 225.27 347.652 225.172 347.965 225.172C348.277 225.172 348.523 225.27 348.703 225.465C348.883 225.652 348.973 225.883 348.973 226.156C348.973 226.43 348.883 226.656 348.703 226.836C348.523 227.008 348.277 227.094 347.965 227.094C347.652 227.094 347.406 227.008 347.227 226.836C347.055 226.656 346.969 226.43 346.969 226.156ZM346.992 215.34C346.992 215.066 347.078 214.836 347.25 214.648C347.43 214.453 347.676 214.355 347.988 214.355C348.301 214.355 348.547 214.453 348.727 214.648C348.906 214.836 348.996 215.066 348.996 215.34C348.996 215.613 348.906 215.84 348.727 216.02C348.547 216.191 348.301 216.277 347.988 216.277C347.676 216.277 347.43 216.191 347.25 216.02C347.078 215.84 346.992 215.613 346.992 215.34ZM362.414 219.887C362.414 222.293 361.973 224.121 361.09 225.371C360.207 226.613 358.906 227.234 357.188 227.234C355.5 227.234 354.207 226.625 353.309 225.406C352.41 224.18 351.949 222.398 351.926 220.062V217.004C351.926 214.605 352.371 212.789 353.262 211.555C354.152 210.32 355.453 209.703 357.164 209.703C358.852 209.703 360.141 210.301 361.031 211.496C361.922 212.684 362.383 214.438 362.414 216.758V219.887ZM361.008 216.828C361.008 214.875 360.688 213.398 360.047 212.398C359.414 211.398 358.453 210.898 357.164 210.898C355.898 210.898 354.945 211.387 354.305 212.363C353.664 213.34 353.336 214.781 353.32 216.688V220.039C353.32 221.984 353.648 223.473 354.305 224.504C354.969 225.535 355.93 226.051 357.188 226.051C358.438 226.051 359.383 225.547 360.023 224.539C360.672 223.531 361 222.055 361.008 220.109V216.828ZM375.727 219.887C375.727 222.293 375.285 224.121 374.402 225.371C373.52 226.613 372.219 227.234 370.5 227.234C368.812 227.234 367.52 226.625 366.621 225.406C365.723 224.18 365.262 222.398 365.238 220.062V217.004C365.238 214.605 365.684 212.789 366.574 211.555C367.465 210.32 368.766 209.703 370.477 209.703C372.164 209.703 373.453 210.301 374.344 211.496C375.234 212.684 375.695 214.438 375.727 216.758V219.887ZM374.32 216.828C374.32 214.875 374 213.398 373.359 212.398C372.727 211.398 371.766 210.898 370.477 210.898C369.211 210.898 368.258 211.387 367.617 212.363C366.977 213.34 366.648 214.781 366.633 216.688V220.039C366.633 221.984 366.961 223.473 367.617 224.504C368.281 225.535 369.242 226.051 370.5 226.051C371.75 226.051 372.695 225.547 373.336 224.539C373.984 223.531 374.312 222.055 374.32 220.109V216.828Z" fill="black"/> <rect x="310" y="270" width="177" height="68" rx="20" fill="#D9D9D9"/> <path d="M319.919 289V279.047H323.33C324.456 279.047 325.312 279.272 325.9 279.724C326.488 280.175 326.782 280.847 326.782 281.74C326.782 282.196 326.659 282.606 326.413 282.971C326.167 283.335 325.807 283.618 325.333 283.818C325.871 283.964 326.285 284.24 326.577 284.646C326.873 285.047 327.021 285.53 327.021 286.095C327.021 287.029 326.721 287.747 326.119 288.248C325.522 288.749 324.665 289 323.549 289H319.919ZM321.648 284.509V287.619H323.569C324.112 287.619 324.535 287.485 324.841 287.216C325.146 286.947 325.299 286.573 325.299 286.095C325.299 285.06 324.77 284.532 323.713 284.509H321.648ZM321.648 283.237H323.344C323.882 283.237 324.301 283.117 324.602 282.875C324.907 282.629 325.06 282.283 325.06 281.836C325.06 281.344 324.918 280.988 324.636 280.77C324.358 280.551 323.923 280.441 323.33 280.441H321.648V283.237ZM331.848 289.137C330.795 289.137 329.94 288.806 329.284 288.146C328.632 287.48 328.307 286.596 328.307 285.493V285.288C328.307 284.55 328.448 283.891 328.73 283.312C329.018 282.729 329.419 282.276 329.934 281.952C330.449 281.629 331.023 281.467 331.656 281.467C332.663 281.467 333.44 281.788 333.987 282.431C334.539 283.073 334.814 283.982 334.814 285.158V285.828H329.981C330.032 286.439 330.234 286.922 330.59 287.277C330.95 287.633 331.401 287.811 331.943 287.811C332.704 287.811 333.324 287.503 333.803 286.888L334.698 287.742C334.402 288.184 334.006 288.528 333.509 288.774C333.017 289.016 332.463 289.137 331.848 289.137ZM331.649 282.8C331.194 282.8 330.825 282.959 330.542 283.278C330.264 283.597 330.086 284.042 330.009 284.611H333.174V284.488C333.137 283.932 332.989 283.513 332.729 283.23C332.47 282.943 332.11 282.8 331.649 282.8ZM339.148 287.811C339.563 287.811 339.907 287.69 340.181 287.448C340.454 287.207 340.6 286.908 340.618 286.553H342.184C342.165 287.013 342.022 287.444 341.753 287.845C341.484 288.241 341.119 288.556 340.659 288.788C340.199 289.021 339.702 289.137 339.169 289.137C338.134 289.137 337.314 288.802 336.708 288.132C336.102 287.462 335.799 286.537 335.799 285.356V285.186C335.799 284.06 336.1 283.16 336.701 282.485C337.303 281.806 338.123 281.467 339.162 281.467C340.042 281.467 340.757 281.724 341.309 282.239C341.865 282.75 342.156 283.422 342.184 284.256H340.618C340.6 283.832 340.454 283.483 340.181 283.21C339.912 282.937 339.568 282.8 339.148 282.8C338.611 282.8 338.196 282.996 337.904 283.388C337.613 283.775 337.465 284.365 337.46 285.158V285.425C337.46 286.227 337.604 286.826 337.891 287.223C338.182 287.615 338.602 287.811 339.148 287.811ZM346.695 289.137C345.643 289.137 344.788 288.806 344.132 288.146C343.48 287.48 343.154 286.596 343.154 285.493V285.288C343.154 284.55 343.296 283.891 343.578 283.312C343.865 282.729 344.266 282.276 344.781 281.952C345.296 281.629 345.87 281.467 346.504 281.467C347.511 281.467 348.288 281.788 348.835 282.431C349.386 283.073 349.662 283.982 349.662 285.158V285.828H344.829C344.879 286.439 345.082 286.922 345.438 287.277C345.798 287.633 346.249 287.811 346.791 287.811C347.552 287.811 348.172 287.503 348.65 286.888L349.546 287.742C349.25 288.184 348.853 288.528 348.356 288.774C347.864 289.016 347.311 289.137 346.695 289.137ZM346.497 282.8C346.041 282.8 345.672 282.959 345.39 283.278C345.112 283.597 344.934 284.042 344.856 284.611H348.021V284.488C347.985 283.932 347.837 283.513 347.577 283.23C347.317 282.943 346.957 282.8 346.497 282.8ZM357.223 289H355.562V286.013H352.684V289H351.022V281.604H352.684V284.687H355.562V281.604H357.223V289ZM365.262 289H363.601V286.013H360.723V289H359.062V281.604H360.723V284.687H363.601V281.604H365.262V289ZM371.653 281.604H373.308V289H371.653V284.064L368.755 289H367.101V281.604H368.755V286.539L371.653 281.604ZM378.332 289.137C377.279 289.137 376.425 288.806 375.769 288.146C375.117 287.48 374.791 286.596 374.791 285.493V285.288C374.791 284.55 374.932 283.891 375.215 283.312C375.502 282.729 375.903 282.276 376.418 281.952C376.933 281.629 377.507 281.467 378.141 281.467C379.148 281.467 379.925 281.788 380.472 282.431C381.023 283.073 381.299 283.982 381.299 285.158V285.828H376.466C376.516 286.439 376.719 286.922 377.074 287.277C377.434 287.633 377.885 287.811 378.428 287.811C379.189 287.811 379.809 287.503 380.287 286.888L381.183 287.742C380.886 288.184 380.49 288.528 379.993 288.774C379.501 289.016 378.947 289.137 378.332 289.137ZM378.134 282.8C377.678 282.8 377.309 282.959 377.026 283.278C376.748 283.597 376.571 284.042 376.493 284.611H379.658V284.488C379.622 283.932 379.474 283.513 379.214 283.23C378.954 282.943 378.594 282.8 378.134 282.8ZM392.346 289H390.685V286.013H387.807V289H386.146V281.604H387.807V284.687H390.685V281.604H392.346V289ZM393.809 285.233C393.809 284.509 393.952 283.857 394.239 283.278C394.526 282.695 394.93 282.248 395.449 281.938C395.969 281.624 396.566 281.467 397.24 281.467C398.238 281.467 399.047 281.788 399.667 282.431C400.291 283.073 400.629 283.925 400.679 284.987L400.686 285.377C400.686 286.106 400.544 286.758 400.262 287.332C399.984 287.906 399.583 288.351 399.059 288.665C398.539 288.979 397.938 289.137 397.254 289.137C396.21 289.137 395.374 288.79 394.745 288.098C394.121 287.4 393.809 286.473 393.809 285.315V285.233ZM395.47 285.377C395.47 286.138 395.627 286.735 395.941 287.168C396.256 287.596 396.693 287.811 397.254 287.811C397.814 287.811 398.25 287.592 398.56 287.154C398.874 286.717 399.031 286.076 399.031 285.233C399.031 284.486 398.869 283.894 398.546 283.456C398.227 283.019 397.792 282.8 397.24 282.8C396.698 282.8 396.267 283.016 395.948 283.449C395.629 283.878 395.47 284.52 395.47 285.377ZM402.217 289V281.604H405.218C406.229 281.604 407 281.781 407.528 282.137C408.057 282.488 408.321 282.993 408.321 283.654C408.321 283.996 408.214 284.304 408 284.577C407.79 284.846 407.478 285.053 407.063 285.199C407.547 285.299 407.929 285.502 408.212 285.808C408.494 286.113 408.636 286.473 408.636 286.888C408.636 287.576 408.381 288.1 407.87 288.46C407.364 288.82 406.635 289 405.683 289H402.217ZM403.878 285.849V287.688H405.696C406.549 287.688 406.975 287.382 406.975 286.771C406.975 286.156 406.542 285.849 405.676 285.849H403.878ZM403.878 284.659H405.245C406.188 284.659 406.66 284.381 406.66 283.825C406.66 283.242 406.214 282.941 405.32 282.923H403.878V284.659ZM414.692 281.604H416.347V289H414.692V284.064L411.794 289H410.14V281.604H411.794V286.539L414.692 281.604ZM424.379 289H422.718V286.013H419.84V289H418.179V281.604H419.84V284.687H422.718V281.604H424.379V289ZM428.781 286.074H427.94V289H426.279V281.604H427.94V284.557H428.672L430.716 281.604H432.767L430.094 285.145L432.992 289H430.832L428.781 286.074ZM438.522 281.604H440.177V289H438.522V284.064L435.624 289H433.97V281.604H435.624V286.539L438.522 281.604Z" fill="black"/> <path d="M328.88 305H327.844V298.028H323.987V305H322.956V297.18H328.88V305ZM335.514 302.159C335.514 303.043 335.311 303.756 334.907 304.296C334.502 304.837 333.954 305.107 333.263 305.107C332.558 305.107 332.003 304.884 331.598 304.436V307.234H330.604V299.188H331.512L331.561 299.833C331.965 299.332 332.527 299.081 333.247 299.081C333.945 299.081 334.497 299.344 334.901 299.871C335.31 300.397 335.514 301.129 335.514 302.067V302.159ZM334.52 302.046C334.52 301.391 334.38 300.873 334.101 300.494C333.822 300.114 333.439 299.924 332.952 299.924C332.35 299.924 331.899 300.191 331.598 300.725V303.501C331.895 304.031 332.35 304.296 332.962 304.296C333.439 304.296 333.816 304.108 334.096 303.732C334.379 303.353 334.52 302.791 334.52 302.046ZM340.541 299.188H341.535V305H340.541V300.762L337.861 305H336.867V299.188H337.861V303.432L340.541 299.188ZM345.08 301.31L346.369 299.188H347.529L345.627 302.062L347.588 305H346.438L345.096 302.825L343.753 305H342.598L344.559 302.062L342.657 299.188H343.807L345.08 301.31ZM348.216 302.041C348.216 301.471 348.327 300.959 348.549 300.504C348.775 300.05 349.086 299.699 349.484 299.452C349.885 299.205 350.341 299.081 350.854 299.081C351.645 299.081 352.284 299.355 352.771 299.903C353.262 300.451 353.507 301.179 353.507 302.089V302.159C353.507 302.724 353.398 303.233 353.179 303.684C352.964 304.132 352.655 304.481 352.25 304.731C351.849 304.982 351.387 305.107 350.864 305.107C350.076 305.107 349.437 304.833 348.947 304.286C348.46 303.738 348.216 303.013 348.216 302.11V302.041ZM349.215 302.159C349.215 302.803 349.364 303.321 349.661 303.711C349.962 304.101 350.363 304.296 350.864 304.296C351.369 304.296 351.77 304.099 352.067 303.706C352.365 303.308 352.513 302.753 352.513 302.041C352.513 301.403 352.361 300.888 352.057 300.494C351.756 300.096 351.355 299.897 350.854 299.897C350.363 299.897 349.967 300.093 349.667 300.483C349.366 300.873 349.215 301.432 349.215 302.159ZM354.318 304.189L354.662 303.765C355.048 303.263 355.269 302.511 355.322 301.509L355.414 299.188H359.157V304.189H359.904V306.708H358.91V305H354.855V306.708H353.861L353.867 304.189H354.318ZM355.494 304.189H358.164V300.107H356.375L356.316 301.493C356.255 302.649 355.981 303.548 355.494 304.189ZM364.765 299.188H365.758V305H364.765V300.762L362.084 305H361.091V299.188H362.084V303.432L364.765 299.188ZM371.672 299.994H369.722V305H368.729V299.994H366.816V299.188H371.672V299.994ZM374.621 305.107C373.833 305.107 373.192 304.85 372.698 304.334C372.204 303.815 371.957 303.122 371.957 302.255V302.073C371.957 301.496 372.066 300.982 372.284 300.531C372.506 300.076 372.814 299.722 373.208 299.468C373.605 299.21 374.035 299.081 374.497 299.081C375.253 299.081 375.84 299.33 376.259 299.828C376.678 300.325 376.887 301.038 376.887 301.965V302.379H372.95C372.965 302.952 373.131 303.416 373.45 303.77C373.772 304.121 374.18 304.296 374.674 304.296C375.025 304.296 375.322 304.225 375.566 304.082C375.809 303.938 376.022 303.749 376.205 303.512L376.812 303.985C376.325 304.733 375.595 305.107 374.621 305.107ZM374.497 299.897C374.096 299.897 373.759 300.044 373.487 300.338C373.215 300.628 373.047 301.036 372.982 301.562H375.894V301.487C375.865 300.982 375.729 300.592 375.485 300.316C375.242 300.037 374.912 299.897 374.497 299.897ZM382.581 302.524H381.855V305H380.856V299.188H381.855V301.648H382.505L384.46 299.188H385.664L383.365 301.981L385.857 305H384.595L382.581 302.524ZM394.188 305H393.194V302.519H390.524V305H389.525V299.188H390.524V301.708H393.194V299.188H394.188V305ZM399.376 305C399.319 304.885 399.272 304.681 399.236 304.388C398.774 304.868 398.223 305.107 397.582 305.107C397.009 305.107 396.538 304.946 396.169 304.624C395.804 304.298 395.622 303.886 395.622 303.389C395.622 302.784 395.851 302.314 396.309 301.981C396.771 301.645 397.419 301.477 398.253 301.477H399.22V301.02C399.22 300.673 399.116 300.397 398.909 300.193C398.701 299.985 398.395 299.881 397.99 299.881C397.636 299.881 397.339 299.971 397.099 300.15C396.859 300.329 396.739 300.546 396.739 300.8H395.74C395.74 300.51 395.842 300.23 396.046 299.962C396.254 299.69 396.533 299.475 396.884 299.317C397.238 299.16 397.627 299.081 398.049 299.081C398.719 299.081 399.243 299.249 399.623 299.586C400.003 299.919 400.2 300.379 400.214 300.966V303.641C400.214 304.175 400.282 304.599 400.418 304.914V305H399.376ZM397.727 304.243C398.039 304.243 398.334 304.162 398.613 304.001C398.893 303.84 399.095 303.63 399.22 303.373V302.18H398.441C397.224 302.18 396.615 302.536 396.615 303.249C396.615 303.561 396.719 303.804 396.927 303.979C397.134 304.155 397.401 304.243 397.727 304.243ZM405.118 303.684L407.094 299.188H408.335V305H407.341V300.773L405.461 305H404.774L402.856 300.682V305H401.863V299.188H403.152L405.118 303.684ZM416.424 299.188H417.417V305H416.424V300.762L413.744 305H412.75V299.188H413.744V303.432L416.424 299.188ZM327.505 318H326.512V313.01H323.837V318H322.838V312.188H327.505V318ZM328.837 315.041C328.837 314.471 328.948 313.959 329.17 313.504C329.396 313.05 329.708 312.699 330.105 312.452C330.506 312.205 330.963 312.081 331.475 312.081C332.266 312.081 332.905 312.355 333.392 312.903C333.883 313.451 334.128 314.179 334.128 315.089V315.159C334.128 315.724 334.019 316.233 333.8 316.684C333.585 317.132 333.276 317.481 332.871 317.731C332.47 317.982 332.008 318.107 331.485 318.107C330.698 318.107 330.058 317.833 329.568 317.286C329.081 316.738 328.837 316.013 328.837 315.11V315.041ZM329.836 315.159C329.836 315.803 329.985 316.321 330.282 316.711C330.583 317.101 330.984 317.296 331.485 317.296C331.99 317.296 332.391 317.099 332.688 316.706C332.986 316.308 333.134 315.753 333.134 315.041C333.134 314.403 332.982 313.888 332.678 313.494C332.377 313.096 331.976 312.897 331.475 312.897C330.984 312.897 330.588 313.093 330.288 313.483C329.987 313.873 329.836 314.432 329.836 315.159ZM340.127 318H339.134V313.01H336.459V318H335.46V312.188H340.127V318ZM346.632 315.159C346.632 316.043 346.43 316.756 346.025 317.296C345.62 317.837 345.072 318.107 344.381 318.107C343.676 318.107 343.121 317.884 342.716 317.436V320.234H341.723V312.188H342.63L342.679 312.833C343.083 312.332 343.646 312.081 344.365 312.081C345.063 312.081 345.615 312.344 346.02 312.871C346.428 313.397 346.632 314.129 346.632 315.067V315.159ZM345.638 315.046C345.638 314.391 345.499 313.873 345.219 313.494C344.94 313.114 344.557 312.924 344.07 312.924C343.468 312.924 343.017 313.191 342.716 313.725V316.501C343.014 317.031 343.468 317.296 344.081 317.296C344.557 317.296 344.935 317.108 345.214 316.732C345.497 316.353 345.638 315.791 345.638 315.046ZM347.636 315.041C347.636 314.471 347.747 313.959 347.969 313.504C348.195 313.05 348.506 312.699 348.904 312.452C349.305 312.205 349.761 312.081 350.273 312.081C351.065 312.081 351.704 312.355 352.191 312.903C352.681 313.451 352.927 314.179 352.927 315.089V315.159C352.927 315.724 352.818 316.233 352.599 316.684C352.384 317.132 352.075 317.481 351.67 317.731C351.269 317.982 350.807 318.107 350.284 318.107C349.496 318.107 348.857 317.833 348.367 317.286C347.88 316.738 347.636 316.013 347.636 315.11V315.041ZM348.635 315.159C348.635 315.803 348.784 316.321 349.081 316.711C349.382 317.101 349.783 317.296 350.284 317.296C350.789 317.296 351.19 317.099 351.487 316.706C351.785 316.308 351.933 315.753 351.933 315.041C351.933 314.403 351.781 313.888 351.477 313.494C351.176 313.096 350.775 312.897 350.273 312.897C349.783 312.897 349.387 313.093 349.086 313.483C348.786 313.873 348.635 314.432 348.635 315.159ZM356.724 312.521C357.455 312.521 358.038 312.767 358.475 313.257C358.916 313.744 359.136 314.387 359.136 315.186V315.277C359.136 315.825 359.03 316.315 358.819 316.749C358.608 317.178 358.303 317.513 357.906 317.753C357.512 317.989 357.057 318.107 356.542 318.107C355.761 318.107 355.132 317.848 354.656 317.329C354.18 316.806 353.942 316.106 353.942 315.229V314.745C353.942 313.524 354.167 312.554 354.619 311.834C355.073 311.114 355.743 310.676 356.627 310.518C357.129 310.429 357.467 310.319 357.643 310.19C357.818 310.062 357.906 309.884 357.906 309.659H358.722C358.722 310.106 358.62 310.455 358.416 310.706C358.215 310.957 357.893 311.134 357.449 311.238L356.708 311.404C356.117 311.544 355.673 311.78 355.376 312.113C355.082 312.443 354.891 312.883 354.801 313.435C355.328 312.826 355.969 312.521 356.724 312.521ZM356.531 313.338C356.044 313.338 355.657 313.503 355.371 313.832C355.084 314.158 354.941 314.611 354.941 315.191V315.277C354.941 315.9 355.084 316.394 355.371 316.759C355.661 317.121 356.051 317.302 356.542 317.302C357.036 317.302 357.426 317.119 357.712 316.754C357.999 316.389 358.142 315.855 358.142 315.153C358.142 314.605 357.997 314.167 357.707 313.837C357.421 313.504 357.028 313.338 356.531 313.338ZM362.154 316.544L363.508 312.188H364.571L362.235 318.897C361.873 319.864 361.299 320.347 360.511 320.347L360.323 320.331L359.952 320.261V319.456L360.221 319.477C360.557 319.477 360.819 319.409 361.005 319.273C361.195 319.137 361.35 318.888 361.472 318.526L361.692 317.936L359.619 312.188H360.704L362.154 316.544ZM369.223 312.188H370.216V318H369.223V313.762L366.542 318H365.549V312.188H366.542V316.432L369.223 312.188ZM369.491 310.072C369.491 310.506 369.343 310.855 369.045 311.12C368.752 311.381 368.365 311.512 367.885 311.512C367.405 311.512 367.017 311.379 366.72 311.114C366.423 310.849 366.274 310.502 366.274 310.072H367.085C367.085 310.323 367.153 310.52 367.289 310.663C367.425 310.803 367.624 310.873 367.885 310.873C368.136 310.873 368.331 310.803 368.471 310.663C368.614 310.523 368.686 310.326 368.686 310.072H369.491ZM376.13 312.994H374.18V318H373.187V312.994H371.274V312.188H376.13V312.994ZM379.079 318.107C378.291 318.107 377.65 317.85 377.156 317.334C376.662 316.815 376.415 316.122 376.415 315.255V315.073C376.415 314.496 376.524 313.982 376.742 313.531C376.964 313.076 377.272 312.722 377.666 312.468C378.063 312.21 378.493 312.081 378.955 312.081C379.711 312.081 380.298 312.33 380.717 312.828C381.136 313.325 381.345 314.038 381.345 314.965V315.379H377.408C377.423 315.952 377.589 316.416 377.908 316.77C378.23 317.121 378.638 317.296 379.132 317.296C379.483 317.296 379.78 317.225 380.024 317.082C380.267 316.938 380.48 316.749 380.663 316.512L381.27 316.985C380.783 317.733 380.053 318.107 379.079 318.107ZM378.955 312.897C378.554 312.897 378.217 313.044 377.945 313.338C377.673 313.628 377.505 314.036 377.44 314.562H380.352V314.487C380.323 313.982 380.187 313.592 379.943 313.316C379.7 313.037 379.37 312.897 378.955 312.897ZM384.965 315.041C384.965 314.471 385.076 313.959 385.298 313.504C385.524 313.05 385.835 312.699 386.233 312.452C386.634 312.205 387.09 312.081 387.603 312.081C388.394 312.081 389.033 312.355 389.52 312.903C390.011 313.451 390.256 314.179 390.256 315.089V315.159C390.256 315.724 390.147 316.233 389.928 316.684C389.713 317.132 389.404 317.481 388.999 317.731C388.598 317.982 388.136 318.107 387.613 318.107C386.826 318.107 386.186 317.833 385.696 317.286C385.209 316.738 384.965 316.013 384.965 315.11V315.041ZM385.964 315.159C385.964 315.803 386.113 316.321 386.41 316.711C386.711 317.101 387.112 317.296 387.613 317.296C388.118 317.296 388.519 317.099 388.816 316.706C389.114 316.308 389.262 315.753 389.262 315.041C389.262 314.403 389.11 313.888 388.806 313.494C388.505 313.096 388.104 312.897 387.603 312.897C387.112 312.897 386.716 313.093 386.416 313.483C386.115 313.873 385.964 314.432 385.964 315.159ZM394.053 312.521C394.784 312.521 395.367 312.767 395.804 313.257C396.245 313.744 396.465 314.387 396.465 315.186V315.277C396.465 315.825 396.359 316.315 396.148 316.749C395.937 317.178 395.632 317.513 395.235 317.753C394.841 317.989 394.386 318.107 393.871 318.107C393.09 318.107 392.462 317.848 391.985 317.329C391.509 316.806 391.271 316.106 391.271 315.229V314.745C391.271 313.524 391.497 312.554 391.948 311.834C392.403 311.114 393.072 310.676 393.957 310.518C394.458 310.429 394.796 310.319 394.972 310.19C395.147 310.062 395.235 309.884 395.235 309.659H396.051C396.051 310.106 395.949 310.455 395.745 310.706C395.545 310.957 395.222 311.134 394.778 311.238L394.037 311.404C393.446 311.544 393.002 311.78 392.705 312.113C392.411 312.443 392.22 312.883 392.13 313.435C392.657 312.826 393.298 312.521 394.053 312.521ZM393.86 313.338C393.373 313.338 392.986 313.503 392.7 313.832C392.413 314.158 392.27 314.611 392.27 315.191V315.277C392.27 315.9 392.413 316.394 392.7 316.759C392.99 317.121 393.38 317.302 393.871 317.302C394.365 317.302 394.755 317.119 395.042 316.754C395.328 316.389 395.471 315.855 395.471 315.153C395.471 314.605 395.326 314.167 395.036 313.837C394.75 313.504 394.358 313.338 393.86 313.338ZM402.233 318H401.24V315.519H398.57V318H397.571V312.188H398.57V314.708H401.24V312.188H402.233V318ZM403.571 315.041C403.571 314.471 403.682 313.959 403.904 313.504C404.129 313.05 404.441 312.699 404.838 312.452C405.239 312.205 405.696 312.081 406.208 312.081C406.999 312.081 407.639 312.355 408.125 312.903C408.616 313.451 408.861 314.179 408.861 315.089V315.159C408.861 315.724 408.752 316.233 408.534 316.684C408.319 317.132 408.009 317.481 407.604 317.731C407.203 317.982 406.742 318.107 406.219 318.107C405.431 318.107 404.792 317.833 404.301 317.286C403.814 316.738 403.571 316.013 403.571 315.11V315.041ZM404.57 315.159C404.57 315.803 404.718 316.321 405.016 316.711C405.316 317.101 405.717 317.296 406.219 317.296C406.724 317.296 407.125 317.099 407.422 316.706C407.719 316.308 407.868 315.753 407.868 315.041C407.868 314.403 407.715 313.888 407.411 313.494C407.11 313.096 406.709 312.897 406.208 312.897C405.717 312.897 405.322 313.093 405.021 313.483C404.72 313.873 404.57 314.432 404.57 315.159ZM410.199 318V312.188H412.465C413.239 312.188 413.831 312.325 414.243 312.597C414.659 312.865 414.866 313.261 414.866 313.784C414.866 314.052 414.786 314.296 414.625 314.514C414.463 314.729 414.225 314.894 413.91 315.008C414.261 315.091 414.542 315.252 414.753 315.492C414.968 315.732 415.076 316.018 415.076 316.351C415.076 316.885 414.879 317.293 414.485 317.576C414.095 317.859 413.541 318 412.825 318H410.199ZM411.192 315.449V317.2H412.836C413.251 317.2 413.561 317.123 413.765 316.969C413.973 316.815 414.077 316.598 414.077 316.319C414.077 315.739 413.651 315.449 412.798 315.449H411.192ZM411.192 314.654H412.476C413.407 314.654 413.873 314.382 413.873 313.837C413.873 313.293 413.432 313.012 412.551 312.994H411.192V314.654ZM421.156 312.188V318H420.157V313.01H418.18L418.062 315.186C417.998 316.185 417.829 316.899 417.557 317.329C417.289 317.758 416.861 317.982 416.273 318H415.876V317.125L416.161 317.103C416.483 317.067 416.714 316.881 416.854 316.544C416.993 316.208 417.083 315.585 417.122 314.675L417.229 312.188H421.156ZM425.163 318.107C424.375 318.107 423.734 317.85 423.24 317.334C422.746 316.815 422.499 316.122 422.499 315.255V315.073C422.499 314.496 422.608 313.982 422.826 313.531C423.048 313.076 423.356 312.722 423.75 312.468C424.147 312.21 424.577 312.081 425.039 312.081C425.795 312.081 426.382 312.33 426.801 312.828C427.22 313.325 427.429 314.038 427.429 314.965V315.379H423.492C423.507 315.952 423.673 316.416 423.992 316.77C424.314 317.121 424.722 317.296 425.216 317.296C425.567 317.296 425.864 317.225 426.108 317.082C426.351 316.938 426.564 316.749 426.747 316.512L427.354 316.985C426.867 317.733 426.137 318.107 425.163 318.107ZM425.039 312.897C424.638 312.897 424.301 313.044 424.029 313.338C423.757 313.628 423.589 314.036 423.524 314.562H426.436V314.487C426.407 313.982 426.271 313.592 426.027 313.316C425.784 313.037 425.454 312.897 425.039 312.897ZM433.332 318H432.338V315.519H429.669V318H428.67V312.188H429.669V314.708H432.338V312.188H433.332V318ZM439.681 318H438.687V315.519H436.018V318H435.019V312.188H436.018V314.708H438.687V312.188H439.681V318ZM441.018 315.041C441.018 314.471 441.129 313.959 441.351 313.504C441.577 313.05 441.888 312.699 442.286 312.452C442.687 312.205 443.143 312.081 443.655 312.081C444.447 312.081 445.086 312.355 445.573 312.903C446.063 313.451 446.309 314.179 446.309 315.089V315.159C446.309 315.724 446.199 316.233 445.981 316.684C445.766 317.132 445.456 317.481 445.052 317.731C444.651 317.982 444.189 318.107 443.666 318.107C442.878 318.107 442.239 317.833 441.749 317.286C441.262 316.738 441.018 316.013 441.018 315.11V315.041ZM442.017 315.159C442.017 315.803 442.166 316.321 442.463 316.711C442.764 317.101 443.165 317.296 443.666 317.296C444.171 317.296 444.572 317.099 444.869 316.706C445.166 316.308 445.315 315.753 445.315 315.041C445.315 314.403 445.163 313.888 444.858 313.494C444.558 313.096 444.157 312.897 443.655 312.897C443.165 312.897 442.769 313.093 442.468 313.483C442.167 313.873 442.017 314.432 442.017 315.159ZM449.966 318.107C449.179 318.107 448.538 317.85 448.043 317.334C447.549 316.815 447.302 316.122 447.302 315.255V315.073C447.302 314.496 447.411 313.982 447.63 313.531C447.852 313.076 448.16 312.722 448.554 312.468C448.951 312.21 449.381 312.081 449.843 312.081C450.598 312.081 451.186 312.33 451.604 312.828C452.023 313.325 452.233 314.038 452.233 314.965V315.379H448.296C448.31 315.952 448.477 316.416 448.795 316.77C449.118 317.121 449.526 317.296 450.02 317.296C450.371 317.296 450.668 317.225 450.912 317.082C451.155 316.938 451.368 316.749 451.551 316.512L452.158 316.985C451.671 317.733 450.94 318.107 449.966 318.107ZM449.843 312.897C449.442 312.897 449.105 313.044 448.833 313.338C448.561 313.628 448.393 314.036 448.328 314.562H451.239V314.487C451.211 313.982 451.075 313.592 450.831 313.316C450.588 313.037 450.258 312.897 449.843 312.897ZM326.098 329.684L328.075 325.188H329.315V331H328.322V326.773L326.442 331H325.754L323.837 326.682V331H322.843V325.188H324.132L326.098 329.684ZM333.328 331.107C332.54 331.107 331.899 330.85 331.405 330.334C330.911 329.815 330.664 329.122 330.664 328.255V328.073C330.664 327.496 330.773 326.982 330.991 326.531C331.213 326.076 331.521 325.722 331.915 325.468C332.312 325.21 332.742 325.081 333.204 325.081C333.96 325.081 334.547 325.33 334.966 325.828C335.385 326.325 335.594 327.038 335.594 327.965V328.379H331.657C331.672 328.952 331.838 329.416 332.157 329.77C332.479 330.121 332.887 330.296 333.381 330.296C333.732 330.296 334.029 330.225 334.273 330.082C334.516 329.938 334.729 329.749 334.912 329.512L335.519 329.985C335.032 330.733 334.302 331.107 333.328 331.107ZM333.204 325.897C332.803 325.897 332.466 326.044 332.194 326.338C331.922 326.628 331.754 327.036 331.689 327.562H334.601V327.487C334.572 326.982 334.436 326.592 334.192 326.316C333.949 326.037 333.619 325.897 333.204 325.897ZM341.497 331H340.503V328.519H337.834V331H336.835V325.188H337.834V327.708H340.503V325.188H341.497V331ZM344.183 327.654H345.579C345.654 326.88 345.928 326.259 346.401 325.79C346.877 325.317 347.477 325.081 348.2 325.081C348.959 325.081 349.581 325.337 350.064 325.849C350.547 326.361 350.809 327.027 350.848 327.847L350.854 328.159C350.854 328.724 350.743 329.235 350.521 329.689C350.299 330.144 349.987 330.495 349.586 330.742C349.185 330.986 348.727 331.107 348.211 331.107C347.463 331.107 346.85 330.864 346.374 330.377C345.898 329.886 345.631 329.251 345.574 328.47H344.183V331H343.189V325.188H344.183V327.654ZM346.557 328.159C346.557 328.803 346.705 329.321 347.002 329.711C347.303 330.101 347.706 330.296 348.211 330.296C348.716 330.296 349.115 330.098 349.409 329.7C349.706 329.303 349.854 328.75 349.854 328.041C349.854 327.407 349.704 326.891 349.403 326.494C349.103 326.096 348.701 325.897 348.2 325.897C347.706 325.897 347.309 326.093 347.008 326.483C346.707 326.873 346.557 327.432 346.557 328.159Z" fill="black"/> <circle cx="477" cy="191" r="10" fill="black"/> <ellipse cx="708.674" cy="201.249" rx="43.4018" ry="29.5" transform="rotate(-30 708.674 201.249)" fill="#1C768F" fill-opacity="0.5"/> <ellipse cx="571.506" cy="444.048" rx="69" ry="29.5" transform="rotate(-30 571.506 444.048)" fill="#1C768F" fill-opacity="0.5"/> <ellipse rx="85.2484" ry="24.8397" transform="matrix(0.707107 0.707107 0.707107 -0.707107 728.844 470.844)" fill="#1C768F" fill-opacity="0.5"/> <rect x="506" y="270" width="34" height="234" fill="white"/> <rect x="749" y="298" width="58" height="242" fill="white"/> <rect x="542.5" y="170.5" width="204" height="368" rx="17.5" stroke="black" stroke-width="5"/> <path d="M571.988 227H570.582V211.625L565.941 213.348V212.035L571.754 209.879H571.988V227ZM589.461 227H578.773V225.922L584.621 219.289C585.59 218.172 586.262 217.25 586.637 216.523C587.012 215.797 587.199 215.09 587.199 214.402C587.199 213.324 586.883 212.473 586.25 211.848C585.617 211.215 584.746 210.898 583.637 210.898C582.488 210.898 581.559 211.266 580.848 212C580.145 212.734 579.793 213.688 579.793 214.859H578.398C578.398 213.898 578.613 213.023 579.043 212.234C579.48 211.445 580.098 210.828 580.895 210.383C581.699 209.93 582.613 209.703 583.637 209.703C585.199 209.703 586.418 210.113 587.293 210.934C588.176 211.754 588.617 212.871 588.617 214.285C588.617 215.082 588.367 215.953 587.867 216.898C587.375 217.844 586.504 219.023 585.254 220.438L580.496 225.816H589.461V227ZM591.969 226.156C591.969 225.883 592.055 225.652 592.227 225.465C592.406 225.27 592.652 225.172 592.965 225.172C593.277 225.172 593.523 225.27 593.703 225.465C593.883 225.652 593.973 225.883 593.973 226.156C593.973 226.43 593.883 226.656 593.703 226.836C593.523 227.008 593.277 227.094 592.965 227.094C592.652 227.094 592.406 227.008 592.227 226.836C592.055 226.656 591.969 226.43 591.969 226.156ZM591.992 215.34C591.992 215.066 592.078 214.836 592.25 214.648C592.43 214.453 592.676 214.355 592.988 214.355C593.301 214.355 593.547 214.453 593.727 214.648C593.906 214.836 593.996 215.066 593.996 215.34C593.996 215.613 593.906 215.84 593.727 216.02C593.547 216.191 593.301 216.277 592.988 216.277C592.676 216.277 592.43 216.191 592.25 216.02C592.078 215.84 591.992 215.613 591.992 215.34ZM607.414 219.887C607.414 222.293 606.973 224.121 606.09 225.371C605.207 226.613 603.906 227.234 602.188 227.234C600.5 227.234 599.207 226.625 598.309 225.406C597.41 224.18 596.949 222.398 596.926 220.062V217.004C596.926 214.605 597.371 212.789 598.262 211.555C599.152 210.32 600.453 209.703 602.164 209.703C603.852 209.703 605.141 210.301 606.031 211.496C606.922 212.684 607.383 214.438 607.414 216.758V219.887ZM606.008 216.828C606.008 214.875 605.688 213.398 605.047 212.398C604.414 211.398 603.453 210.898 602.164 210.898C600.898 210.898 599.945 211.387 599.305 212.363C598.664 213.34 598.336 214.781 598.32 216.688V220.039C598.32 221.984 598.648 223.473 599.305 224.504C599.969 225.535 600.93 226.051 602.188 226.051C603.438 226.051 604.383 225.547 605.023 224.539C605.672 223.531 606 222.055 606.008 220.109V216.828ZM620.727 219.887C620.727 222.293 620.285 224.121 619.402 225.371C618.52 226.613 617.219 227.234 615.5 227.234C613.812 227.234 612.52 226.625 611.621 225.406C610.723 224.18 610.262 222.398 610.238 220.062V217.004C610.238 214.605 610.684 212.789 611.574 211.555C612.465 210.32 613.766 209.703 615.477 209.703C617.164 209.703 618.453 210.301 619.344 211.496C620.234 212.684 620.695 214.438 620.727 216.758V219.887ZM619.32 216.828C619.32 214.875 619 213.398 618.359 212.398C617.727 211.398 616.766 210.898 615.477 210.898C614.211 210.898 613.258 211.387 612.617 212.363C611.977 213.34 611.648 214.781 611.633 216.688V220.039C611.633 221.984 611.961 223.473 612.617 224.504C613.281 225.535 614.242 226.051 615.5 226.051C616.75 226.051 617.695 225.547 618.336 224.539C618.984 223.531 619.312 222.055 619.32 220.109V216.828Z" fill="black"/> <rect x="555" y="270" width="177" height="68" rx="20" fill="#D9D9D9"/> <path d="M564.919 289V279.047H568.33C569.456 279.047 570.312 279.272 570.9 279.724C571.488 280.175 571.782 280.847 571.782 281.74C571.782 282.196 571.659 282.606 571.413 282.971C571.167 283.335 570.807 283.618 570.333 283.818C570.871 283.964 571.285 284.24 571.577 284.646C571.873 285.047 572.021 285.53 572.021 286.095C572.021 287.029 571.721 287.747 571.119 288.248C570.522 288.749 569.665 289 568.549 289H564.919ZM566.648 284.509V287.619H568.569C569.112 287.619 569.535 287.485 569.841 287.216C570.146 286.947 570.299 286.573 570.299 286.095C570.299 285.06 569.77 284.532 568.713 284.509H566.648ZM566.648 283.237H568.344C568.882 283.237 569.301 283.117 569.602 282.875C569.907 282.629 570.06 282.283 570.06 281.836C570.06 281.344 569.918 280.988 569.636 280.77C569.358 280.551 568.923 280.441 568.33 280.441H566.648V283.237ZM576.848 289.137C575.795 289.137 574.94 288.806 574.284 288.146C573.632 287.48 573.307 286.596 573.307 285.493V285.288C573.307 284.55 573.448 283.891 573.73 283.312C574.018 282.729 574.419 282.276 574.934 281.952C575.449 281.629 576.023 281.467 576.656 281.467C577.663 281.467 578.44 281.788 578.987 282.431C579.539 283.073 579.814 283.982 579.814 285.158V285.828H574.981C575.032 286.439 575.234 286.922 575.59 287.277C575.95 287.633 576.401 287.811 576.943 287.811C577.704 287.811 578.324 287.503 578.803 286.888L579.698 287.742C579.402 288.184 579.006 288.528 578.509 288.774C578.017 289.016 577.463 289.137 576.848 289.137ZM576.649 282.8C576.194 282.8 575.825 282.959 575.542 283.278C575.264 283.597 575.086 284.042 575.009 284.611H578.174V284.488C578.137 283.932 577.989 283.513 577.729 283.23C577.47 282.943 577.11 282.8 576.649 282.8ZM584.148 287.811C584.563 287.811 584.907 287.69 585.181 287.448C585.454 287.207 585.6 286.908 585.618 286.553H587.184C587.165 287.013 587.022 287.444 586.753 287.845C586.484 288.241 586.119 288.556 585.659 288.788C585.199 289.021 584.702 289.137 584.169 289.137C583.134 289.137 582.314 288.802 581.708 288.132C581.102 287.462 580.799 286.537 580.799 285.356V285.186C580.799 284.06 581.1 283.16 581.701 282.485C582.303 281.806 583.123 281.467 584.162 281.467C585.042 281.467 585.757 281.724 586.309 282.239C586.865 282.75 587.156 283.422 587.184 284.256H585.618C585.6 283.832 585.454 283.483 585.181 283.21C584.912 282.937 584.568 282.8 584.148 282.8C583.611 282.8 583.196 282.996 582.904 283.388C582.613 283.775 582.465 284.365 582.46 285.158V285.425C582.46 286.227 582.604 286.826 582.891 287.223C583.182 287.615 583.602 287.811 584.148 287.811ZM591.695 289.137C590.643 289.137 589.788 288.806 589.132 288.146C588.48 287.48 588.154 286.596 588.154 285.493V285.288C588.154 284.55 588.296 283.891 588.578 283.312C588.865 282.729 589.266 282.276 589.781 281.952C590.296 281.629 590.87 281.467 591.504 281.467C592.511 281.467 593.288 281.788 593.835 282.431C594.386 283.073 594.662 283.982 594.662 285.158V285.828H589.829C589.879 286.439 590.082 286.922 590.438 287.277C590.798 287.633 591.249 287.811 591.791 287.811C592.552 287.811 593.172 287.503 593.65 286.888L594.546 287.742C594.25 288.184 593.853 288.528 593.356 288.774C592.864 289.016 592.311 289.137 591.695 289.137ZM591.497 282.8C591.041 282.8 590.672 282.959 590.39 283.278C590.112 283.597 589.934 284.042 589.856 284.611H593.021V284.488C592.985 283.932 592.837 283.513 592.577 283.23C592.317 282.943 591.957 282.8 591.497 282.8ZM602.223 289H600.562V286.013H597.684V289H596.022V281.604H597.684V284.687H600.562V281.604H602.223V289ZM610.262 289H608.601V286.013H605.723V289H604.062V281.604H605.723V284.687H608.601V281.604H610.262V289ZM616.653 281.604H618.308V289H616.653V284.064L613.755 289H612.101V281.604H613.755V286.539L616.653 281.604ZM623.332 289.137C622.279 289.137 621.425 288.806 620.769 288.146C620.117 287.48 619.791 286.596 619.791 285.493V285.288C619.791 284.55 619.932 283.891 620.215 283.312C620.502 282.729 620.903 282.276 621.418 281.952C621.933 281.629 622.507 281.467 623.141 281.467C624.148 281.467 624.925 281.788 625.472 282.431C626.023 283.073 626.299 283.982 626.299 285.158V285.828H621.466C621.516 286.439 621.719 286.922 622.074 287.277C622.434 287.633 622.885 287.811 623.428 287.811C624.189 287.811 624.809 287.503 625.287 286.888L626.183 287.742C625.886 288.184 625.49 288.528 624.993 288.774C624.501 289.016 623.947 289.137 623.332 289.137ZM623.134 282.8C622.678 282.8 622.309 282.959 622.026 283.278C621.748 283.597 621.571 284.042 621.493 284.611H624.658V284.488C624.622 283.932 624.474 283.513 624.214 283.23C623.954 282.943 623.594 282.8 623.134 282.8ZM637.346 289H635.685V286.013H632.807V289H631.146V281.604H632.807V284.687H635.685V281.604H637.346V289ZM638.809 285.233C638.809 284.509 638.952 283.857 639.239 283.278C639.526 282.695 639.93 282.248 640.449 281.938C640.969 281.624 641.566 281.467 642.24 281.467C643.238 281.467 644.047 281.788 644.667 282.431C645.291 283.073 645.629 283.925 645.679 284.987L645.686 285.377C645.686 286.106 645.544 286.758 645.262 287.332C644.984 287.906 644.583 288.351 644.059 288.665C643.539 288.979 642.938 289.137 642.254 289.137C641.21 289.137 640.374 288.79 639.745 288.098C639.121 287.4 638.809 286.473 638.809 285.315V285.233ZM640.47 285.377C640.47 286.138 640.627 286.735 640.941 287.168C641.256 287.596 641.693 287.811 642.254 287.811C642.814 287.811 643.25 287.592 643.56 287.154C643.874 286.717 644.031 286.076 644.031 285.233C644.031 284.486 643.869 283.894 643.546 283.456C643.227 283.019 642.792 282.8 642.24 282.8C641.698 282.8 641.267 283.016 640.948 283.449C640.629 283.878 640.47 284.52 640.47 285.377ZM647.217 289V281.604H650.218C651.229 281.604 652 281.781 652.528 282.137C653.057 282.488 653.321 282.993 653.321 283.654C653.321 283.996 653.214 284.304 653 284.577C652.79 284.846 652.478 285.053 652.063 285.199C652.547 285.299 652.929 285.502 653.212 285.808C653.494 286.113 653.636 286.473 653.636 286.888C653.636 287.576 653.381 288.1 652.87 288.46C652.364 288.82 651.635 289 650.683 289H647.217ZM648.878 285.849V287.688H650.696C651.549 287.688 651.975 287.382 651.975 286.771C651.975 286.156 651.542 285.849 650.676 285.849H648.878ZM648.878 284.659H650.245C651.188 284.659 651.66 284.381 651.66 283.825C651.66 283.242 651.214 282.941 650.32 282.923H648.878V284.659ZM659.692 281.604H661.347V289H659.692V284.064L656.794 289H655.14V281.604H656.794V286.539L659.692 281.604ZM669.379 289H667.718V286.013H664.84V289H663.179V281.604H664.84V284.687H667.718V281.604H669.379V289ZM673.781 286.074H672.94V289H671.279V281.604H672.94V284.557H673.672L675.716 281.604H677.767L675.094 285.145L677.992 289H675.832L673.781 286.074ZM683.522 281.604H685.177V289H683.522V284.064L680.624 289H678.97V281.604H680.624V286.539L683.522 281.604Z" fill="black"/> <path d="M573.88 305H572.844V298.028H568.987V305H567.956V297.18H573.88V305ZM580.514 302.159C580.514 303.043 580.311 303.756 579.907 304.296C579.502 304.837 578.954 305.107 578.263 305.107C577.558 305.107 577.003 304.884 576.598 304.436V307.234H575.604V299.188H576.512L576.561 299.833C576.965 299.332 577.527 299.081 578.247 299.081C578.945 299.081 579.497 299.344 579.901 299.871C580.31 300.397 580.514 301.129 580.514 302.067V302.159ZM579.52 302.046C579.52 301.391 579.38 300.873 579.101 300.494C578.822 300.114 578.439 299.924 577.952 299.924C577.35 299.924 576.899 300.191 576.598 300.725V303.501C576.895 304.031 577.35 304.296 577.962 304.296C578.439 304.296 578.816 304.108 579.096 303.732C579.379 303.353 579.52 302.791 579.52 302.046ZM585.541 299.188H586.535V305H585.541V300.762L582.861 305H581.867V299.188H582.861V303.432L585.541 299.188ZM590.08 301.31L591.369 299.188H592.529L590.627 302.062L592.588 305H591.438L590.096 302.825L588.753 305H587.598L589.559 302.062L587.657 299.188H588.807L590.08 301.31ZM593.216 302.041C593.216 301.471 593.327 300.959 593.549 300.504C593.775 300.05 594.086 299.699 594.484 299.452C594.885 299.205 595.341 299.081 595.854 299.081C596.645 299.081 597.284 299.355 597.771 299.903C598.262 300.451 598.507 301.179 598.507 302.089V302.159C598.507 302.724 598.398 303.233 598.179 303.684C597.964 304.132 597.655 304.481 597.25 304.731C596.849 304.982 596.387 305.107 595.864 305.107C595.076 305.107 594.437 304.833 593.947 304.286C593.46 303.738 593.216 303.013 593.216 302.11V302.041ZM594.215 302.159C594.215 302.803 594.364 303.321 594.661 303.711C594.962 304.101 595.363 304.296 595.864 304.296C596.369 304.296 596.77 304.099 597.067 303.706C597.365 303.308 597.513 302.753 597.513 302.041C597.513 301.403 597.361 300.888 597.057 300.494C596.756 300.096 596.355 299.897 595.854 299.897C595.363 299.897 594.967 300.093 594.667 300.483C594.366 300.873 594.215 301.432 594.215 302.159ZM599.318 304.189L599.662 303.765C600.048 303.263 600.269 302.511 600.322 301.509L600.414 299.188H604.157V304.189H604.904V306.708H603.91V305H599.855V306.708H598.861L598.867 304.189H599.318ZM600.494 304.189H603.164V300.107H601.375L601.316 301.493C601.255 302.649 600.981 303.548 600.494 304.189ZM609.765 299.188H610.758V305H609.765V300.762L607.084 305H606.091V299.188H607.084V303.432L609.765 299.188ZM616.672 299.994H614.722V305H613.729V299.994H611.816V299.188H616.672V299.994ZM619.621 305.107C618.833 305.107 618.192 304.85 617.698 304.334C617.204 303.815 616.957 303.122 616.957 302.255V302.073C616.957 301.496 617.066 300.982 617.284 300.531C617.506 300.076 617.814 299.722 618.208 299.468C618.605 299.21 619.035 299.081 619.497 299.081C620.253 299.081 620.84 299.33 621.259 299.828C621.678 300.325 621.887 301.038 621.887 301.965V302.379H617.95C617.965 302.952 618.131 303.416 618.45 303.77C618.772 304.121 619.18 304.296 619.674 304.296C620.025 304.296 620.322 304.225 620.566 304.082C620.809 303.938 621.022 303.749 621.205 303.512L621.812 303.985C621.325 304.733 620.595 305.107 619.621 305.107ZM619.497 299.897C619.096 299.897 618.759 300.044 618.487 300.338C618.215 300.628 618.047 301.036 617.982 301.562H620.894V301.487C620.865 300.982 620.729 300.592 620.485 300.316C620.242 300.037 619.912 299.897 619.497 299.897ZM627.581 302.524H626.855V305H625.856V299.188H626.855V301.648H627.505L629.46 299.188H630.664L628.365 301.981L630.857 305H629.595L627.581 302.524ZM639.188 305H638.194V302.519H635.524V305H634.525V299.188H635.524V301.708H638.194V299.188H639.188V305ZM644.376 305C644.319 304.885 644.272 304.681 644.236 304.388C643.774 304.868 643.223 305.107 642.582 305.107C642.009 305.107 641.538 304.946 641.169 304.624C640.804 304.298 640.622 303.886 640.622 303.389C640.622 302.784 640.851 302.314 641.309 301.981C641.771 301.645 642.419 301.477 643.253 301.477H644.22V301.02C644.22 300.673 644.116 300.397 643.909 300.193C643.701 299.985 643.395 299.881 642.99 299.881C642.636 299.881 642.339 299.971 642.099 300.15C641.859 300.329 641.739 300.546 641.739 300.8H640.74C640.74 300.51 640.842 300.23 641.046 299.962C641.254 299.69 641.533 299.475 641.884 299.317C642.238 299.16 642.627 299.081 643.049 299.081C643.719 299.081 644.243 299.249 644.623 299.586C645.003 299.919 645.2 300.379 645.214 300.966V303.641C645.214 304.175 645.282 304.599 645.418 304.914V305H644.376ZM642.727 304.243C643.039 304.243 643.334 304.162 643.613 304.001C643.893 303.84 644.095 303.63 644.22 303.373V302.18H643.441C642.224 302.18 641.615 302.536 641.615 303.249C641.615 303.561 641.719 303.804 641.927 303.979C642.134 304.155 642.401 304.243 642.727 304.243ZM650.118 303.684L652.094 299.188H653.335V305H652.341V300.773L650.461 305H649.774L647.856 300.682V305H646.863V299.188H648.152L650.118 303.684ZM661.424 299.188H662.417V305H661.424V300.762L658.744 305H657.75V299.188H658.744V303.432L661.424 299.188ZM572.505 318H571.512V313.01H568.837V318H567.838V312.188H572.505V318ZM573.837 315.041C573.837 314.471 573.948 313.959 574.17 313.504C574.396 313.05 574.708 312.699 575.105 312.452C575.506 312.205 575.963 312.081 576.475 312.081C577.266 312.081 577.905 312.355 578.392 312.903C578.883 313.451 579.128 314.179 579.128 315.089V315.159C579.128 315.724 579.019 316.233 578.8 316.684C578.585 317.132 578.276 317.481 577.871 317.731C577.47 317.982 577.008 318.107 576.485 318.107C575.698 318.107 575.058 317.833 574.568 317.286C574.081 316.738 573.837 316.013 573.837 315.11V315.041ZM574.836 315.159C574.836 315.803 574.985 316.321 575.282 316.711C575.583 317.101 575.984 317.296 576.485 317.296C576.99 317.296 577.391 317.099 577.688 316.706C577.986 316.308 578.134 315.753 578.134 315.041C578.134 314.403 577.982 313.888 577.678 313.494C577.377 313.096 576.976 312.897 576.475 312.897C575.984 312.897 575.588 313.093 575.288 313.483C574.987 313.873 574.836 314.432 574.836 315.159ZM585.127 318H584.134V313.01H581.459V318H580.46V312.188H585.127V318ZM591.632 315.159C591.632 316.043 591.43 316.756 591.025 317.296C590.62 317.837 590.072 318.107 589.381 318.107C588.676 318.107 588.121 317.884 587.716 317.436V320.234H586.723V312.188H587.63L587.679 312.833C588.083 312.332 588.646 312.081 589.365 312.081C590.063 312.081 590.615 312.344 591.02 312.871C591.428 313.397 591.632 314.129 591.632 315.067V315.159ZM590.638 315.046C590.638 314.391 590.499 313.873 590.219 313.494C589.94 313.114 589.557 312.924 589.07 312.924C588.468 312.924 588.017 313.191 587.716 313.725V316.501C588.014 317.031 588.468 317.296 589.081 317.296C589.557 317.296 589.935 317.108 590.214 316.732C590.497 316.353 590.638 315.791 590.638 315.046ZM592.636 315.041C592.636 314.471 592.747 313.959 592.969 313.504C593.195 313.05 593.506 312.699 593.904 312.452C594.305 312.205 594.761 312.081 595.273 312.081C596.065 312.081 596.704 312.355 597.191 312.903C597.681 313.451 597.927 314.179 597.927 315.089V315.159C597.927 315.724 597.818 316.233 597.599 316.684C597.384 317.132 597.075 317.481 596.67 317.731C596.269 317.982 595.807 318.107 595.284 318.107C594.496 318.107 593.857 317.833 593.367 317.286C592.88 316.738 592.636 316.013 592.636 315.11V315.041ZM593.635 315.159C593.635 315.803 593.784 316.321 594.081 316.711C594.382 317.101 594.783 317.296 595.284 317.296C595.789 317.296 596.19 317.099 596.487 316.706C596.785 316.308 596.933 315.753 596.933 315.041C596.933 314.403 596.781 313.888 596.477 313.494C596.176 313.096 595.775 312.897 595.273 312.897C594.783 312.897 594.387 313.093 594.086 313.483C593.786 313.873 593.635 314.432 593.635 315.159ZM601.724 312.521C602.455 312.521 603.038 312.767 603.475 313.257C603.916 313.744 604.136 314.387 604.136 315.186V315.277C604.136 315.825 604.03 316.315 603.819 316.749C603.608 317.178 603.303 317.513 602.906 317.753C602.512 317.989 602.057 318.107 601.542 318.107C600.761 318.107 600.132 317.848 599.656 317.329C599.18 316.806 598.942 316.106 598.942 315.229V314.745C598.942 313.524 599.167 312.554 599.619 311.834C600.073 311.114 600.743 310.676 601.627 310.518C602.129 310.429 602.467 310.319 602.643 310.19C602.818 310.062 602.906 309.884 602.906 309.659H603.722C603.722 310.106 603.62 310.455 603.416 310.706C603.215 310.957 602.893 311.134 602.449 311.238L601.708 311.404C601.117 311.544 600.673 311.78 600.376 312.113C600.082 312.443 599.891 312.883 599.801 313.435C600.328 312.826 600.969 312.521 601.724 312.521ZM601.531 313.338C601.044 313.338 600.657 313.503 600.371 313.832C600.084 314.158 599.941 314.611 599.941 315.191V315.277C599.941 315.9 600.084 316.394 600.371 316.759C600.661 317.121 601.051 317.302 601.542 317.302C602.036 317.302 602.426 317.119 602.712 316.754C602.999 316.389 603.142 315.855 603.142 315.153C603.142 314.605 602.997 314.167 602.707 313.837C602.421 313.504 602.028 313.338 601.531 313.338ZM607.154 316.544L608.508 312.188H609.571L607.235 318.897C606.873 319.864 606.299 320.347 605.511 320.347L605.323 320.331L604.952 320.261V319.456L605.221 319.477C605.557 319.477 605.819 319.409 606.005 319.273C606.195 319.137 606.35 318.888 606.472 318.526L606.692 317.936L604.619 312.188H605.704L607.154 316.544ZM614.223 312.188H615.216V318H614.223V313.762L611.542 318H610.549V312.188H611.542V316.432L614.223 312.188ZM614.491 310.072C614.491 310.506 614.343 310.855 614.045 311.12C613.752 311.381 613.365 311.512 612.885 311.512C612.405 311.512 612.017 311.379 611.72 311.114C611.423 310.849 611.274 310.502 611.274 310.072H612.085C612.085 310.323 612.153 310.52 612.289 310.663C612.425 310.803 612.624 310.873 612.885 310.873C613.136 310.873 613.331 310.803 613.471 310.663C613.614 310.523 613.686 310.326 613.686 310.072H614.491ZM621.13 312.994H619.18V318H618.187V312.994H616.274V312.188H621.13V312.994ZM624.079 318.107C623.291 318.107 622.65 317.85 622.156 317.334C621.662 316.815 621.415 316.122 621.415 315.255V315.073C621.415 314.496 621.524 313.982 621.742 313.531C621.964 313.076 622.272 312.722 622.666 312.468C623.063 312.21 623.493 312.081 623.955 312.081C624.711 312.081 625.298 312.33 625.717 312.828C626.136 313.325 626.345 314.038 626.345 314.965V315.379H622.408C622.423 315.952 622.589 316.416 622.908 316.77C623.23 317.121 623.638 317.296 624.132 317.296C624.483 317.296 624.78 317.225 625.024 317.082C625.267 316.938 625.48 316.749 625.663 316.512L626.27 316.985C625.783 317.733 625.053 318.107 624.079 318.107ZM623.955 312.897C623.554 312.897 623.217 313.044 622.945 313.338C622.673 313.628 622.505 314.036 622.44 314.562H625.352V314.487C625.323 313.982 625.187 313.592 624.943 313.316C624.7 313.037 624.37 312.897 623.955 312.897ZM629.965 315.041C629.965 314.471 630.076 313.959 630.298 313.504C630.524 313.05 630.835 312.699 631.233 312.452C631.634 312.205 632.09 312.081 632.603 312.081C633.394 312.081 634.033 312.355 634.52 312.903C635.011 313.451 635.256 314.179 635.256 315.089V315.159C635.256 315.724 635.147 316.233 634.928 316.684C634.713 317.132 634.404 317.481 633.999 317.731C633.598 317.982 633.136 318.107 632.613 318.107C631.826 318.107 631.186 317.833 630.696 317.286C630.209 316.738 629.965 316.013 629.965 315.11V315.041ZM630.964 315.159C630.964 315.803 631.113 316.321 631.41 316.711C631.711 317.101 632.112 317.296 632.613 317.296C633.118 317.296 633.519 317.099 633.816 316.706C634.114 316.308 634.262 315.753 634.262 315.041C634.262 314.403 634.11 313.888 633.806 313.494C633.505 313.096 633.104 312.897 632.603 312.897C632.112 312.897 631.716 313.093 631.416 313.483C631.115 313.873 630.964 314.432 630.964 315.159ZM639.053 312.521C639.784 312.521 640.367 312.767 640.804 313.257C641.245 313.744 641.465 314.387 641.465 315.186V315.277C641.465 315.825 641.359 316.315 641.148 316.749C640.937 317.178 640.632 317.513 640.235 317.753C639.841 317.989 639.386 318.107 638.871 318.107C638.09 318.107 637.462 317.848 636.985 317.329C636.509 316.806 636.271 316.106 636.271 315.229V314.745C636.271 313.524 636.497 312.554 636.948 311.834C637.403 311.114 638.072 310.676 638.957 310.518C639.458 310.429 639.796 310.319 639.972 310.19C640.147 310.062 640.235 309.884 640.235 309.659H641.051C641.051 310.106 640.949 310.455 640.745 310.706C640.545 310.957 640.222 311.134 639.778 311.238L639.037 311.404C638.446 311.544 638.002 311.78 637.705 312.113C637.411 312.443 637.22 312.883 637.13 313.435C637.657 312.826 638.298 312.521 639.053 312.521ZM638.86 313.338C638.373 313.338 637.986 313.503 637.7 313.832C637.413 314.158 637.27 314.611 637.27 315.191V315.277C637.27 315.9 637.413 316.394 637.7 316.759C637.99 317.121 638.38 317.302 638.871 317.302C639.365 317.302 639.755 317.119 640.042 316.754C640.328 316.389 640.471 315.855 640.471 315.153C640.471 314.605 640.326 314.167 640.036 313.837C639.75 313.504 639.358 313.338 638.86 313.338ZM647.233 318H646.24V315.519H643.57V318H642.571V312.188H643.57V314.708H646.24V312.188H647.233V318ZM648.571 315.041C648.571 314.471 648.682 313.959 648.904 313.504C649.129 313.05 649.441 312.699 649.838 312.452C650.239 312.205 650.696 312.081 651.208 312.081C651.999 312.081 652.639 312.355 653.125 312.903C653.616 313.451 653.861 314.179 653.861 315.089V315.159C653.861 315.724 653.752 316.233 653.534 316.684C653.319 317.132 653.009 317.481 652.604 317.731C652.203 317.982 651.742 318.107 651.219 318.107C650.431 318.107 649.792 317.833 649.301 317.286C648.814 316.738 648.571 316.013 648.571 315.11V315.041ZM649.57 315.159C649.57 315.803 649.718 316.321 650.016 316.711C650.316 317.101 650.717 317.296 651.219 317.296C651.724 317.296 652.125 317.099 652.422 316.706C652.719 316.308 652.868 315.753 652.868 315.041C652.868 314.403 652.715 313.888 652.411 313.494C652.11 313.096 651.709 312.897 651.208 312.897C650.717 312.897 650.322 313.093 650.021 313.483C649.72 313.873 649.57 314.432 649.57 315.159ZM655.199 318V312.188H657.465C658.239 312.188 658.831 312.325 659.243 312.597C659.659 312.865 659.866 313.261 659.866 313.784C659.866 314.052 659.786 314.296 659.625 314.514C659.463 314.729 659.225 314.894 658.91 315.008C659.261 315.091 659.542 315.252 659.753 315.492C659.968 315.732 660.076 316.018 660.076 316.351C660.076 316.885 659.879 317.293 659.485 317.576C659.095 317.859 658.541 318 657.825 318H655.199ZM656.192 315.449V317.2H657.836C658.251 317.2 658.561 317.123 658.765 316.969C658.973 316.815 659.077 316.598 659.077 316.319C659.077 315.739 658.651 315.449 657.798 315.449H656.192ZM656.192 314.654H657.476C658.407 314.654 658.873 314.382 658.873 313.837C658.873 313.293 658.432 313.012 657.551 312.994H656.192V314.654ZM666.156 312.188V318H665.157V313.01H663.18L663.062 315.186C662.998 316.185 662.829 316.899 662.557 317.329C662.289 317.758 661.861 317.982 661.273 318H660.876V317.125L661.161 317.103C661.483 317.067 661.714 316.881 661.854 316.544C661.993 316.208 662.083 315.585 662.122 314.675L662.229 312.188H666.156ZM670.163 318.107C669.375 318.107 668.734 317.85 668.24 317.334C667.746 316.815 667.499 316.122 667.499 315.255V315.073C667.499 314.496 667.608 313.982 667.826 313.531C668.048 313.076 668.356 312.722 668.75 312.468C669.147 312.21 669.577 312.081 670.039 312.081C670.795 312.081 671.382 312.33 671.801 312.828C672.22 313.325 672.429 314.038 672.429 314.965V315.379H668.492C668.507 315.952 668.673 316.416 668.992 316.77C669.314 317.121 669.722 317.296 670.216 317.296C670.567 317.296 670.864 317.225 671.108 317.082C671.351 316.938 671.564 316.749 671.747 316.512L672.354 316.985C671.867 317.733 671.137 318.107 670.163 318.107ZM670.039 312.897C669.638 312.897 669.301 313.044 669.029 313.338C668.757 313.628 668.589 314.036 668.524 314.562H671.436V314.487C671.407 313.982 671.271 313.592 671.027 313.316C670.784 313.037 670.454 312.897 670.039 312.897ZM678.332 318H677.338V315.519H674.669V318H673.67V312.188H674.669V314.708H677.338V312.188H678.332V318ZM684.681 318H683.687V315.519H681.018V318H680.019V312.188H681.018V314.708H683.687V312.188H684.681V318ZM686.018 315.041C686.018 314.471 686.129 313.959 686.351 313.504C686.577 313.05 686.888 312.699 687.286 312.452C687.687 312.205 688.143 312.081 688.655 312.081C689.447 312.081 690.086 312.355 690.573 312.903C691.063 313.451 691.309 314.179 691.309 315.089V315.159C691.309 315.724 691.199 316.233 690.981 316.684C690.766 317.132 690.456 317.481 690.052 317.731C689.651 317.982 689.189 318.107 688.666 318.107C687.878 318.107 687.239 317.833 686.749 317.286C686.262 316.738 686.018 316.013 686.018 315.11V315.041ZM687.017 315.159C687.017 315.803 687.166 316.321 687.463 316.711C687.764 317.101 688.165 317.296 688.666 317.296C689.171 317.296 689.572 317.099 689.869 316.706C690.166 316.308 690.315 315.753 690.315 315.041C690.315 314.403 690.163 313.888 689.858 313.494C689.558 313.096 689.157 312.897 688.655 312.897C688.165 312.897 687.769 313.093 687.468 313.483C687.167 313.873 687.017 314.432 687.017 315.159ZM694.966 318.107C694.179 318.107 693.538 317.85 693.043 317.334C692.549 316.815 692.302 316.122 692.302 315.255V315.073C692.302 314.496 692.411 313.982 692.63 313.531C692.852 313.076 693.16 312.722 693.554 312.468C693.951 312.21 694.381 312.081 694.843 312.081C695.598 312.081 696.186 312.33 696.604 312.828C697.023 313.325 697.233 314.038 697.233 314.965V315.379H693.296C693.31 315.952 693.477 316.416 693.795 316.77C694.118 317.121 694.526 317.296 695.02 317.296C695.371 317.296 695.668 317.225 695.912 317.082C696.155 316.938 696.368 316.749 696.551 316.512L697.158 316.985C696.671 317.733 695.94 318.107 694.966 318.107ZM694.843 312.897C694.442 312.897 694.105 313.044 693.833 313.338C693.561 313.628 693.393 314.036 693.328 314.562H696.239V314.487C696.211 313.982 696.075 313.592 695.831 313.316C695.588 313.037 695.258 312.897 694.843 312.897ZM571.098 329.684L573.075 325.188H574.315V331H573.322V326.773L571.442 331H570.754L568.837 326.682V331H567.843V325.188H569.132L571.098 329.684ZM578.328 331.107C577.54 331.107 576.899 330.85 576.405 330.334C575.911 329.815 575.664 329.122 575.664 328.255V328.073C575.664 327.496 575.773 326.982 575.991 326.531C576.213 326.076 576.521 325.722 576.915 325.468C577.312 325.21 577.742 325.081 578.204 325.081C578.96 325.081 579.547 325.33 579.966 325.828C580.385 326.325 580.594 327.038 580.594 327.965V328.379H576.657C576.672 328.952 576.838 329.416 577.157 329.77C577.479 330.121 577.887 330.296 578.381 330.296C578.732 330.296 579.029 330.225 579.273 330.082C579.516 329.938 579.729 329.749 579.912 329.512L580.519 329.985C580.032 330.733 579.302 331.107 578.328 331.107ZM578.204 325.897C577.803 325.897 577.466 326.044 577.194 326.338C576.922 326.628 576.754 327.036 576.689 327.562H579.601V327.487C579.572 326.982 579.436 326.592 579.192 326.316C578.949 326.037 578.619 325.897 578.204 325.897ZM586.497 331H585.503V328.519H582.834V331H581.835V325.188H582.834V327.708H585.503V325.188H586.497V331ZM589.183 327.654H590.579C590.654 326.88 590.928 326.259 591.401 325.79C591.877 325.317 592.477 325.081 593.2 325.081C593.959 325.081 594.581 325.337 595.064 325.849C595.547 326.361 595.809 327.027 595.848 327.847L595.854 328.159C595.854 328.724 595.743 329.235 595.521 329.689C595.299 330.144 594.987 330.495 594.586 330.742C594.185 330.986 593.727 331.107 593.211 331.107C592.463 331.107 591.85 330.864 591.374 330.377C590.898 329.886 590.631 329.251 590.574 328.47H589.183V331H588.189V325.188H589.183V327.654ZM591.557 328.159C591.557 328.803 591.705 329.321 592.002 329.711C592.303 330.101 592.706 330.296 593.211 330.296C593.716 330.296 594.115 330.098 594.409 329.7C594.706 329.303 594.854 328.75 594.854 328.041C594.854 327.407 594.704 326.891 594.403 326.494C594.103 326.096 593.701 325.897 593.2 325.897C592.706 325.897 592.309 326.093 592.008 326.483C591.707 326.873 591.557 327.432 591.557 328.159Z" fill="black"/> <circle cx="644" cy="187" r="5" fill="black"/> </svg>